<?xml version="1.0" encoding="UTF-8"?>
<svg version="1.1" viewBox="0 0 1056 816" xmlSpace="preserve" xmlns="http://www.w3.org/2000/svg" xmlnsCc="http://creativecommons.org/ns#" xmlnsDc="http://purl.org/dc/elements/1.1/" xmlnsRdf="http://www.w3.org/1999/02/22-rdf-syntax-ns#"><defs><clipPath id="a"><path d="m0 0h792v612h-792z"/></clipPath></defs><g transform="matrix(1.3333 0 0 -1.3333 0 816)"><g transform="translate(59.7 -231.55)"><g transform="matrix(.7071 .7071 -.7071 .7071 478.6 -80.349)"><text transform="matrix(.842 0 0 -1 36 507.25)" fill="#e0e0e0" fill-opacity=".5" font-family="Times" font-size="120px"><tspan x="0 86.639999 173.28 259.92001 326.64001 393.35999 433.32001 513.35999 553.32001 639.96002" y="0">UNOFFICIAL</tspan></text>
</g></g><text transform="matrix(1 0 0 -1 334.02 571.22)" fill="#000000" font-family="Times" font-size="16px"><tspan x="0 11.552 18.656 23.983999 31.983999 39.088001 44.416 52.416 56.416 67.968002 75.968002 80.416 88.416 95.519997 100.848 107.072 111.52 115.968" y="0">Harvard University</tspan></text>
<text transform="matrix(1 0 0 -1 328.64 558.75)" fill="#000000" font-family="Times" font-size="10px"><tspan x="0 6.6700001 11.11 18.889999 23.889999 27.219999 30 35 40 44.439999 46.939999 49.439999 58.330002 62.77 66.660004 70.550003 74.989998 79.43 84.43 89.43 93.32 97.760002 100.54 103.32 107.21 109.71 114.71 119.71 124.71 129.71001" y="0">Cambridge, Massachusetts 02138</tspan></text>
<text transform="matrix(1 0 0 -1 361.49 547.84)" fill="#000000" font-family="Helvetica" font-size="9px" font-weight="bold"><tspan x="0 6.4980001 11.502 15.003 20.007 25.011 28.511999 34.011002 36.513 43.011002 48.509998 51.012001 53.514 58.518002 64.016998" y="0">Harvard College</tspan></text>
<text transform="matrix(1 0 0 -1 36.9 537.14)" fill="#000000" font-family="Helvetica" font-size="9px" font-weight="bold"><tspan x="0 6.0029998 11.007 16.506001 19.007999 21.51 27.513 30.014999 35.019001 38.52 42.021 47.025002" y="0">Yan, Pierre </tspan></text>
<text transform="matrix(1 0 0 -1 692.81 538.11)" fill="#000000" font-family="Helvetica" font-size="8px" font-weight="bold"><tspan x="0 4.888 9.3360004 13.784 18.232 21.344 25.792 28.455999 31.120001 33.344002 39.119999 44.007999 48.896 53.344002" y="0">Leverett House</tspan></text>
<text transform="matrix(1 0 0 -1 36.9 527.67)" fill="#000000" font-family="Helvetica" font-size="8px"><tspan x="0 5.336 9.7840004 16.448 18.224001 20.448 22.672001 27.120001 31.568001 33.792 35.568001 40.015999 42.240002 46.688 51.136002 55.584" y="0">Admitted in 2020</tspan></text>
<text transform="matrix(1 0 0 -1 691.02 527.4)" fill="#000000" font-family="Helvetica" font-size="8px"><tspan x="0 5.776 11.552 13.776 19.552 21.775999" y="0">HUID: </tspan></text>
<text transform="matrix(1 0 0 -1 715.02 527.4)" fill="#000000" font-family="Helvetica" font-size="8px" font-weight="bold"><tspan x="0 4.448 8.8959999 13.344 17.792 22.24 26.688 31.136" y="0">41483318</tspan></text>
<text transform="matrix(1 0 0 -1 36.9 518.15)" fill="#000000" font-family="Helvetica" font-size="8px"><tspan x="0 6.224 10.672 15.12 19.568001 21.792 27.128 31.128 35.576 40.023998 44.472 51.136002 52.911999 56.911999 59.136002 64.472 66.695999 71.143997 75.592003 80.040001 81.816002 86.264" y="0">Good Academic Standing</tspan></text>
<text transform="matrix(1,0,0,-1,36,39.309)" fill="#000000" font-family="Helvetica" font-size="6px"><tspan x="0 4.3319998 7.6680002 9.3360004 12.672 14.34 16.007999 19.007999 22.007999 25.344 28.68 32.015999 33.683998 35.352001 38.352001 41.688 43.02 44.688 48.023998 51.360001 53.028 54.695999 58.032001 61.368 64.704002" y="0">Date Issued: Jul 10, 2022</tspan></text>
<text transform="matrix(1,0,0,-1,620.76,38.052)" fill="#000000" font-family="Times" font-size="10px"><tspan x="0 6.1100001 9.4399996 12.22 17.219999 21.66 24.16 28.049999 30.549999 33.049999 41.939999 46.380001 53.599998 58.599998 63.599998 68.040001 70.82 75.82 78.32 80.82 87.489998 91.93 96.93 99.709999 103.6 106.38 109.71 114.15" y="0">Erika J. McDonald, Registrar</tspan></text>
<g clip-path="url(#a)" fill="#000000" font-family="Helvetica" font-size="6px"><text transform="matrix(1,0,0,-1,36,29.684)"><tspan x="0 4.0019999 7.3379998 10.674 14.01" y="0">Page </tspan></text>
<text transform="matrix(1,0,0,-1,51.677,29.684)"><tspan x="0" y="0">1</tspan></text>
<text transform="matrix(1,0,0,-1,56.681,29.684)"><tspan x="0 3.336 5.0040002" y="0">of </tspan></text>
<text transform="matrix(1,0,0,-1,63.353,29.684)"><tspan x="0" y="0">1</tspan></text>
</g><text transform="matrix(1 0 0 -1 622.7 29.324)" fill="#000000" font-family="Helvetica" font-size="7px"><tspan x="0 5.0539999 8.9460001 10.892 12.838 16.73 18.676001 20.622 22.176001 25.676001 27.23 31.122 32.675999 34.622002 38.514 42.405998 43.959999 47.852001 51.352001 54.852001 56.798 60.298 61.852001 65.744003 69.636002 73.528 77.419998 79.365997 83.258003 87.150002 91.042 92.987999 96.487999 100.38 104.272 105.826 109.718" y="0">Not official unless signed and sealed</tspan></text>
<text transform="matrix(1 0 0 -1 171.5 481.65)" fill="#000000" font-family="Helvetica" font-size="7px" font-weight="bold"><tspan x="0 5.0539999 8.9460001 12.838 17.115 21.007 27.23 29.176001 33.068001 35.014 39.682999 42.405998 46.682999 50.959999 53.682999 57.575001" y="0">Academic Program</tspan></text>
<text transform="matrix(1 0 0 -1 36 465.47)" fill="#000000" font-family="Helvetica" font-size="7px"><tspan x="0 3.5 7.3920002 8.9460001 12.838 14.784 16.73 21.784 25.676001 29.568001 33.068001 36.959999 40.852001 42.798 45.129002 49.021 50.966999 52.521 56.412998 60.305 62.250999" y="0">Joint Concentration: </tspan></text>
<text transform="matrix(1 0 0 -1 122.4 465.47)" fill="#000000" font-family="Helvetica" font-size="7px"><tspan x="0 5.0539999 8.9460001 14.777 18.669001 22.561001 24.507 28.399 30.73 32.675999 37.345001 40.845001 42.398998 46.291 50.182999 53.682999" y="0">Computer Science</tspan></text>
<text transform="matrix(1 0 0 -1 36 456.92)" fill="#000000" font-family="Helvetica" font-size="7px"><tspan x="0 3.5 7.3920002 8.9460001 12.838 14.784 16.73 21.784 25.676001 29.568001 33.068001 36.959999 40.852001 42.798 45.129002 49.021 50.966999 52.521 56.412998 60.305 62.250999" y="0">Joint Concentration: </tspan></text>
<text transform="matrix(1 0 0 -1 122.4 456.92)" fill="#000000" font-family="Helvetica" font-size="7px"><tspan x="0 5.8309999 9.7229996 11.277 15.169 18.669001 22.561001 24.115 28.007 30.337999 32.284 36.175999 40.068001 43.959999 45.905998 50.959999 54.852001 56.405998 57.959999 61.852001 63.405998 67.297997 69.628998 71.574997 76.244003 77.797997 81.690002 83.244003 87.136002 91.028" y="0">Molecular and Cellular Biology</tspan></text>
<text transform="matrix(1 0 0 -1 141.17 441.19)" fill="#000000" font-family="Helvetica" font-size="7px" font-weight="bold"><tspan x="0 5.0539999 8.9460001 13.223 15.169 19.445999 23.723 25.669001 29.945999 34.223 36.168999 40.445999 42.777" y="0">Beginning of </tspan></text>
<text transform="matrix(1 0 0 -1 185.89 441.19)" fill="#000000" font-family="Helvetica" font-size="7px" font-weight="bold"><tspan x="0 5.0539999 8.9460001 11.669 15.561 19.452999 22.176001 26.452999 28.399 33.452999 37.73 39.675999 41.622002 45.514 49.791" y="0">Harvard College</tspan></text>
<text transform="matrix(1 0 0 -1 241.52 441.19)" fill="#000000" font-family="Helvetica" font-size="7px" font-weight="bold"><tspan x="0 5.0539999 8.9460001 12.838 17.115 19.837999" y="0">Record</tspan></text>
<text transform="matrix(1 0 0 -1 171.74 425.93)" fill="#000000" font-family="Helvetica" font-size="7px" font-weight="bold"><tspan x="0 3.892 7.7839999 11.676 15.568 17.514 21.791 25.683001 27.629" y="0">2020 Fall</tspan></text>
<text transform="matrix(1 0 0 -1 36.4 411.6)" fill="#000000" font-family="Helvetica" font-size="7px" font-weight="bold"><tspan x="0 5.0539999 9.3310003 13.608 16.330999 20.223" y="0">Course</tspan></text>
<path d="m36.4 410.85h24.115" fill="none" stroke="#000" stroke-miterlimit="10" stroke-width=".51"/><text transform="matrix(1 0 0 -1 103.5 411.6)" fill="#000000" font-family="Helvetica" font-size="7px" font-weight="bold"><tspan x="0 5.0539999 8.9460001 12.838 16.73 19.452999 21.399 25.676001 28.007 29.952999 34.23" y="0">Description</tspan></text>
<path d="m103.5 410.85h38.507" fill="none" stroke="#000" stroke-miterlimit="10" stroke-width=".51"/><text transform="matrix(1 0 0 -1 285.52 411.6)" fill="#000000" font-family="Helvetica" font-size="7px" font-weight="bold"><tspan x="0 4.6690001 8.5609999 11.284 15.561 19.452999" y="0">Earned</tspan></text>
<path d="m285.52 410.85h23.73" fill="none" stroke="#000" stroke-miterlimit="10" stroke-width=".51"/><text transform="matrix(1 0 0 -1 322.26 411.6)" fill="#000000" font-family="Helvetica" font-size="7px" font-weight="bold"><tspan x="0 5.4460001 8.1689997 12.061 16.337999" y="0">Grade</tspan></text>
<path d="m322.26 410.85h20.23" fill="none" stroke="#000" stroke-miterlimit="10" stroke-width=".51"/><text transform="matrix(1 0 0 -1 36.4 403.57)" fill="#000000" font-family="Helvetica" font-size="6px"><tspan x="0 4.3319998 8.6639996 12.996 16.997999 21 29.34 33.341999" y="0">CHNSE BX</tspan></text>
<text transform="matrix(1 0 0 -1 103.5 403.57)" fill="#000000" font-family="Helvetica" font-size="6px"><tspan x="0 4.0019999 5.3340001 8.6700001 13.668 17.004 20.34 22.007999 25.344 27.341999 30.341999 32.009998 36.341999 39.678001 41.009998 44.346001 47.681999 50.681999 54.018002 55.686001 57.354 60.689999 62.688 64.356003 68.358002 71.694 74.694 78.029999 81.365997 84.365997 87.702003 91.038002 92.706001 96.708 100.044 103.38 104.712 108.048 111.384 114.72 116.718" y="0">Elementary Chinese for Advanced Beginners</tspan></text>
<text transform="matrix(1 0 0 -1 294.24 403.57)" fill="#000000" font-family="Helvetica" font-size="6px"><tspan x="0 3.336 5.0040002 8.3400002 11.676" y="0">4.000</tspan></text>
<text transform="matrix(1 0 0 -1 325.8 403.57)" fill="#000000" font-family="Helvetica" font-size="6px"><tspan x="0" y="0">A</tspan></text>
<text transform="matrix(1 0 0 -1 36.4 396.64)" fill="#000000" font-family="Helvetica" font-size="6px"><tspan x="0 3.6659999 7.9980001 12 16.002001 21 25.332001 30.336 33.672001 37.007999" y="0">FRSEMR 23P</tspan></text>
<text transform="matrix(1 0 0 -1 103.5 396.64)" fill="#000000" font-family="Helvetica" font-size="6px"><tspan x="0 4.0019999 7.3379998 10.338 13.338 14.67 17.67 20.67 22.337999 24.006001 29.004 32.34 34.007999 37.344002 39.012001 42.348 45.683998 49.02 50.688 54.689999 58.026001 61.026001 64.026001 65.358002 68.694" y="0">Physics, Math and Puzzles</tspan></text>
<text transform="matrix(1 0 0 -1 294.24 396.64)" fill="#000000" font-family="Helvetica" font-size="6px"><tspan x="0 3.336 5.0040002 8.3400002 11.676" y="0">4.000</tspan></text>
<text transform="matrix(1 0 0 -1 325.8 396.64)" fill="#000000" font-family="Helvetica" font-size="6px"><tspan x="0 4.0019999 8.0039997" y="0">SAT</tspan></text>
<text transform="matrix(1,0,0,-1,36.4,389.7)" fill="#000000" font-family="Helvetica" font-size="6px"><tspan x="0 4.6680002 8.6700001 13.002 17.004 21.336 23.004 26.34 29.676001 33.012001" y="0">GENED 1074</tspan></text>
<text transform="matrix(1,0,0,-1,103.5,389.7)" fill="#000000" font-family="Helvetica" font-size="6px"><tspan x="0 3.6659999 7.0019999 10.338 12.006 16.007999 19.344 22.344 23.676001 27.011999 30.348 32.015999 33.683998 38.352001 40.349998 43.686001 47.021999 50.021999 51.689999 56.021999 59.358002 61.355999" y="0">The Ancient Greek Hero</tspan></text>
<text transform="matrix(1 0 0 -1 294.24 389.7)" fill="#000000" font-family="Helvetica" font-size="6px"><tspan x="0 3.336 5.0040002 8.3400002 11.676" y="0">4.000</tspan></text>
<text transform="matrix(1,0,0,-1,325.8,389.7)" fill="#000000" font-family="Helvetica" font-size="6px"><tspan x="0 4.0019999" y="0">A-</tspan></text>
<text transform="matrix(1 0 0 -1 36.4 382.76)" fill="#000000" font-family="Helvetica" font-size="6px"><tspan x="0 4.9980001 9 12.666 16.997999 22.002001 25.337999 28.674" y="0">MATH 25A</tspan></text>
<text transform="matrix(1 0 0 -1 103.5 382.76)" fill="#000000" font-family="Helvetica" font-size="6px"><tspan x="0 3.6659999 7.0019999 10.338 13.674 15.672 19.007999 20.676001 22.007999 25.007999 28.344 29.676001 31.344 34.68 36.012001 39.348 42.683998 46.02 48.018002 49.686001 53.688 55.02 58.355999 61.692001 65.028 67.026001 70.362 72.029999 75.365997 78.702003 82.038002 83.706001 88.038002 91.374001 94.709999 96.042 97.709999 101.712 105.048 108.384 109.716 112.716 115.716 117.048 120.048 121.716" y="0">Theoretical Linear Algebra and Real Analysis I</tspan></text>
<text transform="matrix(1 0 0 -1 294.24 382.76)" fill="#000000" font-family="Helvetica" font-size="6px"><tspan x="0 3.336 5.0040002 8.3400002 11.676" y="0">4.000</tspan></text>
<text transform="matrix(1 0 0 -1 325.8 382.76)" fill="#000000" font-family="Helvetica" font-size="6px"><tspan x="0" y="0">A</tspan></text>
<text transform="matrix(1 0 0 -1 166.68 367.72)" fill="#000000" font-family="Helvetica" font-size="7px" font-weight="bold"><tspan x="0 3.892 7.7839999 11.676 15.568 17.514 22.183001 26.459999 29.183001 31.129 35.405998" y="0">2021 Spring</tspan></text>
<text transform="matrix(1 0 0 -1 36.4 353.39)" fill="#000000" font-family="Helvetica" font-size="7px" font-weight="bold"><tspan x="0 5.0539999 9.3310003 13.608 16.330999 20.223" y="0">Course</tspan></text>
<path d="m36.4 352.64h24.115" fill="none" stroke="#000" stroke-miterlimit="10" stroke-width=".51"/><text transform="matrix(1 0 0 -1 103.5 353.39)" fill="#000000" font-family="Helvetica" font-size="7px" font-weight="bold"><tspan x="0 5.0539999 8.9460001 12.838 16.73 19.452999 21.399 25.676001 28.007 29.952999 34.23" y="0">Description</tspan></text>
<path d="m103.5 352.64h38.507" fill="none" stroke="#000" stroke-miterlimit="10" stroke-width=".51"/><text transform="matrix(1 0 0 -1 285.52 353.39)" fill="#000000" font-family="Helvetica" font-size="7px" font-weight="bold"><tspan x="0 4.6690001 8.5609999 11.284 15.561 19.452999" y="0">Earned</tspan></text>
<path d="m285.52 352.64h23.73" fill="none" stroke="#000" stroke-miterlimit="10" stroke-width=".51"/><text transform="matrix(1 0 0 -1 322.26 353.39)" fill="#000000" font-family="Helvetica" font-size="7px" font-weight="bold"><tspan x="0 5.4460001 8.1689997 12.061 16.337999" y="0">Grade</tspan></text>
<path d="m322.26 352.64h20.23" fill="none" stroke="#000" stroke-miterlimit="10" stroke-width=".51"/><text transform="matrix(1 0 0 -1 36.4 345.36)" fill="#000000" font-family="Helvetica" font-size="6px"><tspan x="0 4.3319998 8.6639996 12.996 16.997999 21 24.336 27.672001 31.007999 34.344002 38.346001" y="0">CHNSE 123XB</tspan></text>
<text transform="matrix(1 0 0 -1 103.5 345.36)" fill="#000000" font-family="Helvetica" font-size="6px"><tspan x="0 1.668 5.0040002 6.6719999 10.008 12.006 17.004 20.34 23.676001 25.007999 28.344 30.011999 33.348 35.015999 40.014 43.349998 46.686001 50.021999 52.02 55.355999 57.023998 61.355999 64.692001 66.024002 69.360001 72.695999 75.695999 79.031998 80.699997 82.367996 85.704002 87.702003 89.370003 93.372002 96.708 99.708 103.044 106.38 109.38 112.716 116.052 117.72 121.722 125.058 128.394 129.726 133.062 136.39799 139.73399 141.73199" y="0">Intermediate Modern Chinese for Advanced Beginners</tspan></text>
<text transform="matrix(1 0 0 -1 294.24 345.36)" fill="#000000" font-family="Helvetica" font-size="6px"><tspan x="0 3.336 5.0040002 8.3400002 11.676" y="0">4.000</tspan></text>
<text transform="matrix(1 0 0 -1 325.8 345.36)" fill="#000000" font-family="Helvetica" font-size="6px"><tspan x="0" y="0">A</tspan></text>
<text transform="matrix(1 0 0 -1 36.4 338.43)" fill="#000000" font-family="Helvetica" font-size="6px"><tspan x="0 4.3319998 9 13.998 18 22.002001 26.334 28.002001 33.006001 36.341999" y="0">COMPSCI 51</tspan></text>
<text transform="matrix(1 0 0 -1 103.5 338.43)" fill="#000000" font-family="Helvetica" font-size="6px"><tspan x="0 4.0019999 7.3379998 10.338 12.006 14.004 17.34 20.34 22.007999 23.34 26.676001 30.011999 31.68 35.015999 38.352001 41.688 43.355999 47.688 51.023998 54.023998 55.355999 58.692001 62.028 63.695999 65.028 68.363998 70.031998 74.363998 77.699997 82.697998 86.033997 89.370003 91.038002 94.374001 96.042 97.374001 100.71" y="0">Abstraction and Design in Computation</tspan></text>
<text transform="matrix(1 0 0 -1 294.24 338.43)" fill="#000000" font-family="Helvetica" font-size="6px"><tspan x="0 3.336 5.0040002 8.3400002 11.676" y="0">4.000</tspan></text>
<text transform="matrix(1 0 0 -1 325.8 338.43)" fill="#000000" font-family="Helvetica" font-size="6px"><tspan x="0" y="0">A</tspan></text>
<text transform="matrix(1,0,0,-1,36.4,331.49)" fill="#000000" font-family="Helvetica" font-size="6px"><tspan x="0 4.0019999 8.0039997 12.006 16.674 20.676001 25.68 29.016001" y="0">EXPOS 20</tspan></text>
<text transform="matrix(1,0,0,-1,103.5,331.49)" fill="#000000" font-family="Helvetica" font-size="6px"><tspan x="0 4.0019999 7.0019999 10.338 13.674 16.674 18.006001 19.674 23.01 25.007999 28.007999 29.676001 35.34 37.338001 38.669998 40.338001 41.669998 45.006001 48.341999 50.009998 53.346001" y="0">Expository Writing 20</tspan></text>
<text transform="matrix(1 0 0 -1 294.24 331.49)" fill="#000000" font-family="Helvetica" font-size="6px"><tspan x="0 3.336 5.0040002 8.3400002 11.676" y="0">4.000</tspan></text>
<text transform="matrix(1,0,0,-1,325.8,331.49)" fill="#000000" font-family="Helvetica" font-size="6px"><tspan x="0 4.0019999" y="0">B+</tspan></text>
<text transform="matrix(1 0 0 -1 36.4 324.55)" fill="#000000" font-family="Helvetica" font-size="6px"><tspan x="0 4.3319998 7.6680002 11.004 13.002 16.002001 19.337999 21.006001 24.672001 28.007999 31.344 32.675999 35.675999 37.344002" y="0">Course Topic: </tspan></text>
<text transform="matrix(1 0 0 -1 103.5 324.55)" fill="#000000" font-family="Helvetica" font-size="6px"><tspan x="0 3 6.336 9.6719999 11.67 15.006 18.341999 21.341999 23.01 24.677999 28.014 29.681999 34.68 38.015999 40.014 43.014" y="0">Journey to Mars </tspan></text>
<text transform="matrix(1 0 0 -1 36.4 317.62)" fill="#000000" font-family="Helvetica" font-size="6px"><tspan x="0 4.9980001 9 12.666 16.997999 22.002001 25.337999 28.674" y="0">MATH 25B</tspan></text>
<text transform="matrix(1 0 0 -1 103.5 317.62)" fill="#000000" font-family="Helvetica" font-size="6px"><tspan x="0 3.6659999 7.0019999 10.338 13.674 15.672 19.007999 20.676001 22.007999 25.007999 28.344 29.676001 31.344 34.68 36.012001 39.348 42.683998 46.02 48.018002 49.686001 53.688 55.02 58.355999 61.692001 65.028 67.026001 70.362 72.029999 75.365997 78.702003 82.038002 83.706001 88.038002 91.374001 94.709999 96.042 97.709999 101.712 105.048 108.384 109.716 112.716 115.716 117.048 120.048 121.716 123.384" y="0">Theoretical Linear Algebra and Real Analysis II</tspan></text>
<text transform="matrix(1 0 0 -1 294.24 317.62)" fill="#000000" font-family="Helvetica" font-size="6px"><tspan x="0 3.336 5.0040002 8.3400002 11.676" y="0">4.000</tspan></text>
<text transform="matrix(1 0 0 -1 325.8 317.62)" fill="#000000" font-family="Helvetica" font-size="6px"><tspan x="0" y="0">A</tspan></text>
<text transform="matrix(1 0 0 -1 171.74 302.57)" fill="#000000" font-family="Helvetica" font-size="7px" font-weight="bold"><tspan x="0 3.892 7.7839999 11.676 15.568 17.514 21.791 25.683001 27.629" y="0">2021 Fall</tspan></text>
<text transform="matrix(1 0 0 -1 36.4 288.24)" fill="#000000" font-family="Helvetica" font-size="7px" font-weight="bold"><tspan x="0 5.0539999 9.3310003 13.608 16.330999 20.223" y="0">Course</tspan></text>
<path d="m36.4 287.5h24.115" fill="none" stroke="#000" stroke-miterlimit="10" stroke-width=".51"/><text transform="matrix(1 0 0 -1 103.5 288.24)" fill="#000000" font-family="Helvetica" font-size="7px" font-weight="bold"><tspan x="0 5.0539999 8.9460001 12.838 16.73 19.452999 21.399 25.676001 28.007 29.952999 34.23" y="0">Description</tspan></text>
<path d="m103.5 287.5h38.507" fill="none" stroke="#000" stroke-miterlimit="10" stroke-width=".51"/><text transform="matrix(1 0 0 -1 285.52 288.24)" fill="#000000" font-family="Helvetica" font-size="7px" font-weight="bold"><tspan x="0 4.6690001 8.5609999 11.284 15.561 19.452999" y="0">Earned</tspan></text>
<path d="m285.52 287.5h23.73" fill="none" stroke="#000" stroke-miterlimit="10" stroke-width=".51"/><text transform="matrix(1 0 0 -1 322.26 288.24)" fill="#000000" font-family="Helvetica" font-size="7px" font-weight="bold"><tspan x="0 5.4460001 8.1689997 12.061 16.337999" y="0">Grade</tspan></text>
<path d="m322.26 287.5h20.23" fill="none" stroke="#000" stroke-miterlimit="10" stroke-width=".51"/><text transform="matrix(1 0 0 -1 36.4 280.22)" fill="#000000" font-family="Helvetica" font-size="6px"><tspan x="0 4.3319998 9 13.998 18 22.002001 26.334 28.002001 33.006001 36.341999" y="0">COMPSCI 61</tspan></text>
<text transform="matrix(1 0 0 -1 103.5 280.22)" fill="#000000" font-family="Helvetica" font-size="6px"><tspan x="0 4.0019999 7.0019999 10.002 11.67 15.006 20.004 23.004 24.672001 28.674 30.672001 34.007999 37.344002 39.341999 42.678001 47.675999 52.674 54.006001 57.341999 60.678001 62.346001 65.681999 69.017998 72.353996 74.022003 79.019997 82.356003 85.356003 88.692001 90.024002 93.360001 96.695999 98.363998 103.032 105.03 108.366 111.702 115.038 116.37 119.37 122.706 124.374 125.706 129.04201" y="0">Systems Programming and Machine Organization</tspan></text>
<text transform="matrix(1 0 0 -1 294.24 280.22)" fill="#000000" font-family="Helvetica" font-size="6px"><tspan x="0 3.336 5.0040002 8.3400002 11.676" y="0">4.000</tspan></text>
<text transform="matrix(1 0 0 -1 325.8 280.22)" fill="#000000" font-family="Helvetica" font-size="6px"><tspan x="0" y="0">A</tspan></text>
<text transform="matrix(1,0,0,-1,36.4,273.28)" fill="#000000" font-family="Helvetica" font-size="6px"><tspan x="0 4.3319998 9 13.998 18 22.002001 26.334 28.002001 31.337999 34.674 38.009998" y="0">COMPSCI 153</tspan></text>
<text transform="matrix(1,0,0,-1,103.5,273.28)" fill="#000000" font-family="Helvetica" font-size="6px"><tspan x="0 4.3319998 7.6680002 12.666 16.002001 17.334 18.666 22.002001 24" y="0">Compilers</tspan></text>
<text transform="matrix(1 0 0 -1 294.24 273.28)" fill="#000000" font-family="Helvetica" font-size="6px"><tspan x="0 3.336 5.0040002 8.3400002 11.676" y="0">4.000</tspan></text>
<text transform="matrix(1,0,0,-1,325.8,273.28)" fill="#000000" font-family="Helvetica" font-size="6px"><tspan x="0 4.0019999" y="0">A-</tspan></text>
<text transform="matrix(1 0 0 -1 36.4 266.34)" fill="#000000" font-family="Helvetica" font-size="6px"><tspan x="0 3.336 5.0040002 8.6700001 12.672 16.674 21.006001 22.674 29.346001 32.681999" y="0">LIFESCI 1A</tspan></text>
<text transform="matrix(1 0 0 -1 103.5 266.34)" fill="#000000" font-family="Helvetica" font-size="6px"><tspan x="0 4.0019999 7.3379998 9.0059996 10.674 14.01 15.678 19.014 22.35 24.348 27.684 29.351999 32.688 36.023998 37.692001 39.360001 42.695999 44.363998 46.362 49.698002 53.034 56.369999 59.369999 61.037998 62.369999 65.706001 69.042 70.709999 72.377998 75.713997 77.382004 79.050003 82.386002 85.722 87.389999 90.725998 92.057999 93.725998 97.061996 98.730003 102.732 105.732 107.064 110.4 113.736 116.736 120.072 123.072 124.74 126.408 130.74001 134.076 137.412 142.41 143.742 146.742 148.41 150.408 153.408 155.076" y="0">An Integrated Introduction to the Life Sciences: Chemistry, </tspan></text>
<text transform="matrix(1 0 0 -1 103.5 259.41)" fill="#000000" font-family="Helvetica" font-size="6px"><tspan x="0 4.9980001 8.3339996 9.6660004 13.002 16.002001 19.337999 20.67 24.006001 26.004 27.672001 31.674 33.006001 36.341999 37.674 41.009998 44.346001 47.346001 49.014 50.681999 54.018002 57.354 60.689999 62.358002 66.690002 70.026001 71.358002 72.690002 74.358002 78.360001 79.692001 83.028 84.360001 87.695999 91.031998" y="0">Molecular Biology, and Cell Biology</tspan></text>
<text transform="matrix(1 0 0 -1 294.24 266.34)" fill="#000000" font-family="Helvetica" font-size="6px"><tspan x="0 3.336 5.0040002 8.3400002 11.676" y="0">4.000</tspan></text>
<text transform="matrix(1 0 0 -1 325.8 266.34)" fill="#000000" font-family="Helvetica" font-size="6px"><tspan x="0 4.0019999" y="0">A-</tspan></text>
<text transform="matrix(1 0 0 -1 36.4 252.47)" fill="#000000" font-family="Helvetica" font-size="6px"><tspan x="0 4.9980001 9.3299999 13.332 18.336 21.672001" y="0">MCB 60</tspan></text>
<text transform="matrix(1 0 0 -1 103.5 252.47)" fill="#000000" font-family="Helvetica" font-size="6px"><tspan x="0 4.3319998 7.6680002 9 10.332 13.668 15 18.336 20.334 22.002001 26.004 27.336 30.672001 32.004002 35.34 38.675999 41.675999 43.344002 46.68 50.015999 53.352001 55.02 60.018002 63.354 64.685997 68.022003 71.022003 74.358002 75.690002 79.026001 81.024002 82.692001 87.690002 91.026001 94.362 95.694 98.694 100.026 103.362" y="0">Cellular Biology and Molecular Medicine</tspan></text>
<text transform="matrix(1 0 0 -1 294.24 252.47)" fill="#000000" font-family="Helvetica" font-size="6px"><tspan x="0 3.336 5.0040002 8.3400002 11.676" y="0">4.000</tspan></text>
<text transform="matrix(1 0 0 -1 325.8 252.47)" fill="#000000" font-family="Helvetica" font-size="6px"><tspan x="0" y="0">A</tspan></text>
<text transform="matrix(1 0 0 -1 166.68 237.42)" fill="#000000" font-family="Helvetica" font-size="7px" font-weight="bold"><tspan x="0 3.892 7.7839999 11.676 15.568 17.514 22.183001 26.459999 29.183001 31.129 35.405998" y="0">2022 Spring</tspan></text>
<text transform="matrix(1 0 0 -1 36.4 223.1)" fill="#000000" font-family="Helvetica" font-size="7px" font-weight="bold"><tspan x="0 5.0539999 9.3310003 13.608 16.330999 20.223" y="0">Course</tspan></text>
<path d="m36.4 222.35h24.115" fill="none" stroke="#000" stroke-miterlimit="10" stroke-width=".51"/><text transform="matrix(1 0 0 -1 103.5 223.1)" fill="#000000" font-family="Helvetica" font-size="7px" font-weight="bold"><tspan x="0 5.0539999 8.9460001 12.838 16.73 19.452999 21.399 25.676001 28.007 29.952999 34.23" y="0">Description</tspan></text>
<path d="m103.5 222.35h38.507" fill="none" stroke="#000" stroke-miterlimit="10" stroke-width=".51"/><text transform="matrix(1 0 0 -1 285.52 223.1)" fill="#000000" font-family="Helvetica" font-size="7px" font-weight="bold"><tspan x="0 4.6690001 8.5609999 11.284 15.561 19.452999" y="0">Earned</tspan></text>
<path d="m285.52 222.35h23.73" fill="none" stroke="#000" stroke-miterlimit="10" stroke-width=".51"/><text transform="matrix(1 0 0 -1 322.26 223.1)" fill="#000000" font-family="Helvetica" font-size="7px" font-weight="bold"><tspan x="0 5.4460001 8.1689997 12.061 16.337999" y="0">Grade</tspan></text>
<path d="m322.26 222.35h20.23" fill="none" stroke="#000" stroke-miterlimit="10" stroke-width=".51"/><text transform="matrix(1 0 0 -1 36.4 215.07)" fill="#000000" font-family="Helvetica" font-size="6px"><tspan x="0 4.3319998 9 13.998 18 22.002001 26.334 28.002001 31.337999 34.674 38.009998" y="0">COMPSCI 124</tspan></text>
<text transform="matrix(1 0 0 -1 103.5 215.07)" fill="#000000" font-family="Helvetica" font-size="6px"><tspan x="0 4.3319998 7.6680002 9.3360004 12.672 14.34 18.341999 20.01 22.007999 25.344 28.344 30.011999 33.348 35.346001 38.681999 41.681999 43.349998 46.686001 50.021999 53.358002 55.026001 59.028 60.360001 63.695999 67.031998 69.029999 70.362 72.029999 75.365997 80.363998" y="0">Data Structures and Algorithms</tspan></text>
<text transform="matrix(1 0 0 -1 294.24 215.07)" fill="#000000" font-family="Helvetica" font-size="6px"><tspan x="0 3.336 5.0040002 8.3400002 11.676" y="0">4.000</tspan></text>
<text transform="matrix(1 0 0 -1 325.8 215.07)" fill="#000000" font-family="Helvetica" font-size="6px"><tspan x="0 4.0019999" y="0">A-</tspan></text>
<text transform="matrix(1 0 0 -1 36.4 208.13)" fill="#000000" font-family="Helvetica" font-size="6px"><tspan x="0 4.3319998 9 13.998 18 22.002001 26.334 28.002001 31.337999 34.674 38.009998" y="0">COMPSCI 181</tspan></text>
<text transform="matrix(1 0 0 -1 103.5 208.13)" fill="#000000" font-family="Helvetica" font-size="6px"><tspan x="0 4.9980001 8.3339996 11.334 14.67 16.002001 19.337999 22.674 24.341999 27.677999 31.014 34.349998 36.348 39.683998 41.015999 44.352001" y="0">Machine Learning</tspan></text>
<text transform="matrix(1 0 0 -1 294.24 208.13)" fill="#000000" font-family="Helvetica" font-size="6px"><tspan x="0 3.336 5.0040002 8.3400002 11.676" y="0">4.000</tspan></text>
<text transform="matrix(1 0 0 -1 325.8 208.13)" fill="#000000" font-family="Helvetica" font-size="6px"><tspan x="0 4.0019999" y="0">A-</tspan></text>
<text transform="matrix(1 0 0 -1 36.4 201.2)" fill="#000000" font-family="Helvetica" font-size="6px"><tspan x="0 3.336 5.0040002 8.6700001 12.672 16.674 21.006001 22.674 29.346001 32.681999" y="0">LIFESCI 1B</tspan></text>
<text transform="matrix(1 0 0 -1 103.5 201.2)" fill="#000000" font-family="Helvetica" font-size="6px"><tspan x="0 4.0019999 7.3379998 9.0059996 10.674 14.01 15.678 19.014 22.35 24.348 27.684 29.351999 32.688 36.023998 37.692001 39.360001 42.695999 44.363998 46.362 49.698002 53.034 56.369999 59.369999 61.037998 62.369999 65.706001 69.042 70.709999 72.377998 75.713997 77.382004 79.050003 82.386002 85.722 87.389999 90.725998 92.057999 93.725998 97.061996 98.730003 102.732 105.732 107.064 110.4 113.736 116.736 120.072 123.072 124.74 126.408 131.076 134.412 137.748 141.084 142.752 144.084 147.084 150.084 151.752" y="0">An Integrated Introduction to the Life Sciences: Genetics, </tspan></text>
<text transform="matrix(1 0 0 -1 103.5 194.26)" fill="#000000" font-family="Helvetica" font-size="6px"><tspan x="0 4.6680002 8.0039997 11.34 14.676 19.674 21.006001 24.006001 27.006001 28.674 30.341999 33.678001 37.014 40.349998 42.018002 46.02 49.02 52.355999 53.688 57.023998 58.692001 60.023998 63.360001" y="0">Genomics, and Evolution</tspan></text>
<text transform="matrix(1 0 0 -1 294.24 201.2)" fill="#000000" font-family="Helvetica" font-size="6px"><tspan x="0 3.336 5.0040002 8.3400002 11.676" y="0">4.000</tspan></text>
<text transform="matrix(1 0 0 -1 325.8 201.2)" fill="#000000" font-family="Helvetica" font-size="6px"><tspan x="0 4.0019999" y="0">A-</tspan></text>
<text transform="matrix(1 0 0 -1 36.4 187.32)" fill="#000000" font-family="Helvetica" font-size="6px"><tspan x="0 4.0019999 8.3339996 12.336 16.337999 20.67 22.337999 27.341999 30.677999" y="0">PHYSCI 11</tspan></text>
<text transform="matrix(1 0 0 -1 103.5 187.32)" fill="#000000" font-family="Helvetica" font-size="6px"><tspan x="0 3.6659999 7.0019999 10.338 13.674 17.01 20.346001 22.014 23.346001 26.681999 30.018 33.018002 34.686001 38.021999 41.358002 44.694 46.362 50.028 52.026001 55.362 58.698002 60.366001 61.698002 65.033997 67.031998 70.031998 71.699997 75.036003 76.704002 78.372002 83.370003 86.706001 90.042 93.377998 95.375999 98.711998 100.38 104.712 108.048 111.384 116.382 117.714 120.714 122.382 124.38 127.38 129.048 130.716 134.718 136.386 141.384 144.72 146.052 149.388 152.388 155.724 157.056 160.392 162.39" y="0">Foundations and Frontiers of Modern Chemistry: A Molecular </tspan></text>
<text transform="matrix(1 0 0 -1 103.5 180.39)" fill="#000000" font-family="Helvetica" font-size="6px"><tspan x="0 3.336 6.6719999 10.008 11.676 16.344 17.676001 21.011999 24.348 27.684 29.016001 30.684 34.686001 38.021999 40.02 43.02 46.355999 49.692001 52.692001 54.360001 55.692001 58.692001" y="0">and Global Perspective</tspan></text>
<text transform="matrix(1 0 0 -1 294.24 187.32)" fill="#000000" font-family="Helvetica" font-size="6px"><tspan x="0 3.336 5.0040002 8.3400002 11.676" y="0">4.000</tspan></text>
<text transform="matrix(1 0 0 -1 325.8 187.32)" fill="#000000" font-family="Helvetica" font-size="6px"><tspan x="0" y="0">A</tspan></text>
<text transform="matrix(1 0 0 -1 36 165.34)" fill="#000000" font-family="Helvetica" font-size="7px" font-weight="bold"><tspan x="0 5.0539999 8.9460001 11.669 15.561 19.452999 22.176001 26.452999 28.399 33.452999 37.73 39.675999 41.622002 45.514 49.791 53.682999 55.629002 60.682999 64.574997 67.297997 71.190002 75.082001 77.805 79.750999 84.028 88.305 90.636002 94.528 96.473999" y="0">Harvard College Career Totals</tspan></text>
<text transform="matrix(1 0 0 -1 36.05 157.01)" fill="#000000" font-family="Helvetica" font-size="7px" font-weight="bold"><tspan x="0 5.0539999 9.3310003 15.554 17.5 22.945999 27.615 32.668999 35" y="0">Cum GPA: </tspan></text>
<text transform="matrix(1 0 0 -1 99.45 157.01)" fill="#000000" font-family="Helvetica" font-size="7px" font-weight="bold"><tspan x="0 3.892 5.8379998 9.7299995 13.622" y="0">3.823</tspan></text>
<text transform="matrix(1 0 0 -1 208.14 157.01)" fill="#000000" font-family="Helvetica" font-size="7px" font-weight="bold"><tspan x="0 5.0539999 9.3310003 15.554 17.5 21.777 26.054001 28.385 32.277 34.223" y="0">Cum Totals</tspan></text>
<text transform="matrix(1 0 0 -1 287.84 157.01)" fill="#000000" font-family="Helvetica" font-size="7px" font-weight="bold"><tspan x="0 3.892 7.7839999 9.7299995 13.622 17.514" y="0">64.000</tspan></text>
<text transform="matrix(1 0 0 -1 328.34 157.01)" fill="#000000" font-family="Helvetica" font-size="7px" font-weight="bold"><tspan x="0 3.892 7.7839999 9.7299995 13.622 17.514" y="0">60.000</tspan></text>
<text transform="matrix(1 0 0 -1 151.67 139.68)" fill="#000000" font-family="Helvetica" font-size="7px" font-weight="bold"><tspan x="0 4.6690001 8.9460001 13.223 15.169 19.445999 21.777 23.723 28.777 32.668999 35.391998 39.284 43.175999 45.898998 50.175999 52.122002 57.175999 61.452999 63.398998 65.345001 69.237 73.514 77.405998 79.351997 84.405998 88.297997 92.190002 96.467003 99.190002" y="0">End of Harvard College Record</tspan></text>
</g></svg>
