<?xml version="1.0" encoding="UTF-8"?>
<svg version="1.1" viewBox="0 0 816 1056" xmlSpace="preserve" xmlns="http://www.w3.org/2000/svg" xmlnsCc="http://creativecommons.org/ns#" xmlnsDc="http://purl.org/dc/elements/1.1/" xmlnsRdf="http://www.w3.org/1999/02/22-rdf-syntax-ns#"><defs><clipPath id="db"><path d="m256.01 726.84h99.504v14.16h-99.504z" clip-rule="evenodd"/></clipPath><clipPath id="bh"><path d="m256.01 726.84h99.504v14.16h-99.504z" clip-rule="evenodd"/></clipPath><clipPath><path d="m256.01 726.84h99.504v14.16h-99.504z" clip-rule="evenodd"/></clipPath><clipPath><path d="m256.01 726.84h99.504v14.16h-99.504z" clip-rule="evenodd"/></clipPath><clipPath><path d="m9.12e-6 0h612v792h-612z" clip-rule="evenodd"/></clipPath><clipPath id="s"><path d="m530.38 506.83h45.72v12.12h-45.72z" clip-rule="evenodd"/></clipPath><clipPath id="m"><path d="m530.38 506.83h45.72v12.12h-45.72z" clip-rule="evenodd"/></clipPath><clipPath id="f"><path d="m530.38 506.83h45.72v12.12h-45.72z" clip-rule="evenodd"/></clipPath><clipPath><path d="m530.38 506.83h45.72v12.12h-45.72z" clip-rule="evenodd"/></clipPath><clipPath><path d="m9.12e-6 0h612v792h-612z" clip-rule="evenodd"/></clipPath><clipPath><path d="m9.12e-6 0h612v792h-612z" clip-rule="evenodd"/></clipPath><clipPath id="ef"><path d="m9.12e-6 0h612v792h-612z" clip-rule="evenodd"/></clipPath><clipPath id="dy"><path d="m9.12e-6 0h612v792h-612z" clip-rule="evenodd"/></clipPath><clipPath><path d="m9.12e-6 0h612v792h-612z" clip-rule="evenodd"/></clipPath><clipPath id="do"><path d="m9.12e-6 0h612v792h-612z" clip-rule="evenodd"/></clipPath><clipPath id="dh"><path d="m9.12e-6 0h612v792h-612z" clip-rule="evenodd"/></clipPath><clipPath><path d="m9.12e-6 0h612v792h-612z" clip-rule="evenodd"/></clipPath><clipPath id="cy"><path d="m9.12e-6 0h612v792h-612z" clip-rule="evenodd"/></clipPath><clipPath id="cr"><path d="m9.12e-6 0h612v792h-612z" clip-rule="evenodd"/></clipPath><clipPath id="ci"><path d="m9.12e-6 0h612v792h-612z" clip-rule="evenodd"/></clipPath><clipPath id="cd"><path d="m9.12e-6 0h612v792h-612z" clip-rule="evenodd"/></clipPath><clipPath id="bw"><path d="m9.12e-6 0h612v792h-612z" clip-rule="evenodd"/></clipPath><clipPath><path d="m9.12e-6 0h612v792h-612z" clip-rule="evenodd"/></clipPath><clipPath><path d="m9.12e-6 0h612v792h-612z" clip-rule="evenodd"/></clipPath><clipPath id="bg"><path d="m9.12e-6 0h612v792h-612z" clip-rule="evenodd"/></clipPath><clipPath><path d="m9.12e-6 0h612v792h-612z" clip-rule="evenodd"/></clipPath><clipPath id="aw"><path d="m9.12e-6 0h612v792h-612z" clip-rule="evenodd"/></clipPath><clipPath><path d="m9.12e-6 0h612v792h-612z" clip-rule="evenodd"/></clipPath><clipPath id="am"><path d="m9.12e-6 0h612v792h-612z" clip-rule="evenodd"/></clipPath><clipPath><path d="m9.12e-6 0h612v792h-612z" clip-rule="evenodd"/></clipPath><clipPath id="ai"><path d="m9.12e-6 0h612v792h-612z" clip-rule="evenodd"/></clipPath><clipPath><path d="m9.12e-6 0h612v792h-612z" clip-rule="evenodd"/></clipPath><clipPath id="ah"><path d="m9.12e-6 0h612v792h-612z" clip-rule="evenodd"/></clipPath><clipPath><path d="m9.12e-6 0h612v792h-612z" clip-rule="evenodd"/></clipPath><clipPath><path d="m9.12e-6 0h612v792h-612z" clip-rule="evenodd"/></clipPath><clipPath id="ag"><path d="m9.12e-6 0h612v792h-612z" clip-rule="evenodd"/></clipPath><clipPath id="af"><path d="m9.12e-6 0h612v792h-612z" clip-rule="evenodd"/></clipPath><clipPath id="ae"><path d="m9.12e-6 0h612v792h-612z" clip-rule="evenodd"/></clipPath><clipPath id="ad"><path d="m9.12e-6 0h612v792h-612z" clip-rule="evenodd"/></clipPath><clipPath id="ac"><path d="m9.12e-6 0h612v792h-612z" clip-rule="evenodd"/></clipPath><clipPath><path d="m9.12e-6 0h612v792h-612z" clip-rule="evenodd"/></clipPath><clipPath id="ab"><path d="m9.12e-6 0h612v792h-612z" clip-rule="evenodd"/></clipPath><clipPath id="aa"><path d="m9.12e-6 0h612v792h-612z" clip-rule="evenodd"/></clipPath><clipPath><path d="m9.12e-6 0h612v792h-612z" clip-rule="evenodd"/></clipPath><clipPath><path d="m9.12e-6 0h612v792h-612z" clip-rule="evenodd"/></clipPath><clipPath id="z"><path d="m9.12e-6 0h612v792h-612z" clip-rule="evenodd"/></clipPath><clipPath id="y"><path d="m9.12e-6 0h612v792h-612z" clip-rule="evenodd"/></clipPath><clipPath><path d="m9.12e-6 0h612v792h-612z" clip-rule="evenodd"/></clipPath><clipPath><path d="m9.12e-6 0h612v792h-612z" clip-rule="evenodd"/></clipPath><clipPath id="x"><path d="m9.12e-6 0h612v792h-612z" clip-rule="evenodd"/></clipPath><clipPath id="w"><path d="m9.12e-6 0h612v792h-612z" clip-rule="evenodd"/></clipPath><clipPath><path d="m9.12e-6 0h612v792h-612z" clip-rule="evenodd"/></clipPath><clipPath id="v"><path d="m9.12e-6 0h612v792h-612z" clip-rule="evenodd"/></clipPath><clipPath><path d="m9.12e-6 0h612v792h-612z" clip-rule="evenodd"/></clipPath><clipPath><path d="m9.12e-6 0h612v792h-612z" clip-rule="evenodd"/></clipPath><clipPath><path d="m9.12e-6 0h612v792h-612z" clip-rule="evenodd"/></clipPath><clipPath><path d="m9.12e-6 0h612v792h-612z" clip-rule="evenodd"/></clipPath><clipPath id="u"><path d="m9.12e-6 0h612v792h-612z" clip-rule="evenodd"/></clipPath><clipPath><path d="m9.12e-6 0h612v792h-612z" clip-rule="evenodd"/></clipPath><clipPath id="t"><path d="m9.12e-6 0h612v792h-612z" clip-rule="evenodd"/></clipPath><clipPath><path d="m9.12e-6 0h612v792h-612z" clip-rule="evenodd"/></clipPath><clipPath><path d="m9.12e-6 0h612v792h-612z" clip-rule="evenodd"/></clipPath><clipPath id="r"><path d="m9.12e-6 0h612v792h-612z" clip-rule="evenodd"/></clipPath><clipPath id="q"><path d="m9.12e-6 0h612v792h-612z" clip-rule="evenodd"/></clipPath><clipPath id="p"><path d="m9.12e-6 0h612v792h-612z" clip-rule="evenodd"/></clipPath><clipPath id="o"><path d="m9.12e-6 0h612v792h-612z" clip-rule="evenodd"/></clipPath><clipPath><path d="m9.12e-6 0h612v792h-612z" clip-rule="evenodd"/></clipPath><clipPath id="n"><path d="m9.12e-6 0h612v792h-612z" clip-rule="evenodd"/></clipPath><clipPath><path d="m9.12e-6 0h612v792h-612z" clip-rule="evenodd"/></clipPath><clipPath><path d="m9.12e-6 0h612v792h-612z" clip-rule="evenodd"/></clipPath><clipPath id="l"><path d="m9.12e-6 0h612v792h-612z" clip-rule="evenodd"/></clipPath><clipPath><path d="m9.12e-6 0h612v792h-612z" clip-rule="evenodd"/></clipPath><clipPath><path d="m9.12e-6 0h612v792h-612z" clip-rule="evenodd"/></clipPath><clipPath id="k"><path d="m9.12e-6 0h612v792h-612z" clip-rule="evenodd"/></clipPath><clipPath><path d="m9.12e-6 0h612v792h-612z" clip-rule="evenodd"/></clipPath><clipPath><path d="m9.12e-6 0h612v792h-612z" clip-rule="evenodd"/></clipPath><clipPath id="j"><path d="m9.12e-6 0h612v792h-612z" clip-rule="evenodd"/></clipPath><clipPath id="i"><path d="m9.12e-6 0h612v792h-612z" clip-rule="evenodd"/></clipPath><clipPath id="h"><path d="m9.12e-6 0h612v792h-612z" clip-rule="evenodd"/></clipPath><clipPath id="g"><path d="m9.12e-6 0h612v792h-612z" clip-rule="evenodd"/></clipPath><clipPath id="e"><path d="m9.12e-6 0h612v792h-612z" clip-rule="evenodd"/></clipPath><clipPath><path d="m9.12e-6 0h612v792h-612z" clip-rule="evenodd"/></clipPath><clipPath><path d="m9.12e-6 0h612v792h-612z" clip-rule="evenodd"/></clipPath><clipPath><path d="m9.12e-6 0h612v792h-612z" clip-rule="evenodd"/></clipPath><clipPath><path d="m9.12e-6 0h612v792h-612z" clip-rule="evenodd"/></clipPath><clipPath><path d="m9.12e-6 0h612v792h-612z" clip-rule="evenodd"/></clipPath><clipPath><path d="m9.12e-6 0h612v792h-612z" clip-rule="evenodd"/></clipPath><clipPath id="d"><path d="m9.12e-6 0h612v792h-612z" clip-rule="evenodd"/></clipPath><clipPath><path d="m9.12e-6 0h612v792h-612z" clip-rule="evenodd"/></clipPath><clipPath><path d="m9.12e-6 0h612v792h-612z" clip-rule="evenodd"/></clipPath><clipPath><path d="m9.12e-6 0h612v792h-612z" clip-rule="evenodd"/></clipPath><clipPath><path d="m9.12e-6 0h612v792h-612z" clip-rule="evenodd"/></clipPath><clipPath id="c"><path d="m9.12e-6 0h612v792h-612z" clip-rule="evenodd"/></clipPath><clipPath><path d="m9.12e-6 0h612v792h-612z" clip-rule="evenodd"/></clipPath><clipPath><path d="m9.12e-6 0h612v792h-612z" clip-rule="evenodd"/></clipPath><clipPath><path d="m9.12e-6 0h612v792h-612z" clip-rule="evenodd"/></clipPath><clipPath><path d="m9.12e-6 0h612v792h-612z" clip-rule="evenodd"/></clipPath><clipPath><path d="m9.12e-6 0h612v792h-612z" clip-rule="evenodd"/></clipPath><clipPath id="b"><path d="m9.12e-6 0h612v792h-612z" clip-rule="evenodd"/></clipPath><clipPath id="a"><path d="m9.12e-6 0h612v792h-612z" clip-rule="evenodd"/></clipPath><clipPath id="ep"><path d="m9.12e-6 0h612v792h-612z" clip-rule="evenodd"/></clipPath><clipPath id="eo"><path d="m9.12e-6 0h612v792h-612z" clip-rule="evenodd"/></clipPath><clipPath><path d="m9.12e-6 0h612v792h-612z" clip-rule="evenodd"/></clipPath><clipPath><path d="m9.12e-6 0h612v792h-612z" clip-rule="evenodd"/></clipPath><clipPath><path d="m9.12e-6 0h612v792h-612z" clip-rule="evenodd"/></clipPath><clipPath><path d="m9.12e-6 0h612v792h-612z" clip-rule="evenodd"/></clipPath><clipPath id="en"><path d="m9.12e-6 0h612v792h-612z" clip-rule="evenodd"/></clipPath><clipPath><path d="m9.12e-6 0h612v792h-612z" clip-rule="evenodd"/></clipPath><clipPath id="em"><path d="m9.12e-6 0h612v792h-612z" clip-rule="evenodd"/></clipPath><clipPath id="el"><path d="m9.12e-6 0h612v792h-612z" clip-rule="evenodd"/></clipPath><clipPath><path d="m9.12e-6 0h612v792h-612z" clip-rule="evenodd"/></clipPath><clipPath id="ek"><path d="m9.12e-6 0h612v792h-612z" clip-rule="evenodd"/></clipPath><clipPath><path d="m9.12e-6 0h612v792h-612z" clip-rule="evenodd"/></clipPath><clipPath id="ej"><path d="m9.12e-6 0h612v792h-612z" clip-rule="evenodd"/></clipPath><clipPath><path d="m9.12e-6 0h612v792h-612z" clip-rule="evenodd"/></clipPath><clipPath id="ei"><path d="m9.12e-6 0h612v792h-612z" clip-rule="evenodd"/></clipPath><clipPath id="eh"><path d="m9.12e-6 0h612v792h-612z" clip-rule="evenodd"/></clipPath><clipPath><path d="m9.12e-6 0h612v792h-612z" clip-rule="evenodd"/></clipPath><clipPath><path d="m9.12e-6 0h612v792h-612z" clip-rule="evenodd"/></clipPath><clipPath id="eg"><path d="m9.12e-6 0h612v792h-612z" clip-rule="evenodd"/></clipPath><clipPath><path d="m9.12e-6 0h612v792h-612z" clip-rule="evenodd"/></clipPath><clipPath id="ee"><path d="m9.12e-6 0h612v792h-612z" clip-rule="evenodd"/></clipPath><clipPath><path d="m9.12e-6 0h612v792h-612z" clip-rule="evenodd"/></clipPath><clipPath><path d="m9.12e-6 0h612v792h-612z" clip-rule="evenodd"/></clipPath><clipPath id="ed"><path d="m9.12e-6 0h612v792h-612z" clip-rule="evenodd"/></clipPath><clipPath><path d="m9.12e-6 0h612v792h-612z" clip-rule="evenodd"/></clipPath><clipPath id="ec"><path d="m9.12e-6 0h612v792h-612z" clip-rule="evenodd"/></clipPath><clipPath id="eb"><path d="m9.12e-6 0h612v792h-612z" clip-rule="evenodd"/></clipPath><clipPath id="ea"><path d="m9.12e-6 0h612v792h-612z" clip-rule="evenodd"/></clipPath><clipPath id="dz"><path d="m9.12e-6 0h612v792h-612z" clip-rule="evenodd"/></clipPath><clipPath><path d="m9.12e-6 0h612v792h-612z" clip-rule="evenodd"/></clipPath><clipPath><path d="m9.12e-6 0h612v792h-612z" clip-rule="evenodd"/></clipPath><clipPath><path d="m9.12e-6 0h612v792h-612z" clip-rule="evenodd"/></clipPath><clipPath><path d="m9.12e-6 0h612v792h-612z" clip-rule="evenodd"/></clipPath><clipPath id="dx"><path d="m9.12e-6 0h612v792h-612z" clip-rule="evenodd"/></clipPath><clipPath><path d="m9.12e-6 0h612v792h-612z" clip-rule="evenodd"/></clipPath><clipPath id="dw"><path d="m9.12e-6 0h612v792h-612z" clip-rule="evenodd"/></clipPath><clipPath id="dv"><path d="m9.12e-6 0h612v792h-612z" clip-rule="evenodd"/></clipPath><clipPath><path d="m9.12e-6 0h612v792h-612z" clip-rule="evenodd"/></clipPath><clipPath id="du"><path d="m9.12e-6 0h612v792h-612z" clip-rule="evenodd"/></clipPath><clipPath><path d="m9.12e-6 0h612v792h-612z" clip-rule="evenodd"/></clipPath><clipPath><path d="m9.12e-6 0h612v792h-612z" clip-rule="evenodd"/></clipPath><clipPath id="dt"><path d="m9.12e-6 0h612v792h-612z" clip-rule="evenodd"/></clipPath><clipPath><path d="m9.12e-6 0h612v792h-612z" clip-rule="evenodd"/></clipPath><clipPath><path d="m9.12e-6 0h612v792h-612z" clip-rule="evenodd"/></clipPath><clipPath id="ds"><path d="m9.12e-6 0h612v792h-612z" clip-rule="evenodd"/></clipPath><clipPath><path d="m9.12e-6 0h612v792h-612z" clip-rule="evenodd"/></clipPath><clipPath id="dr"><path d="m9.12e-6 0h612v792h-612z" clip-rule="evenodd"/></clipPath><clipPath id="dq"><path d="m9.12e-6 0h612v792h-612z" clip-rule="evenodd"/></clipPath><clipPath><path d="m9.12e-6 0h612v792h-612z" clip-rule="evenodd"/></clipPath><clipPath id="dp"><path d="m9.12e-6 0h612v792h-612z" clip-rule="evenodd"/></clipPath><clipPath><path d="m9.12e-6 0h612v792h-612z" clip-rule="evenodd"/></clipPath><clipPath id="dn"><path d="m9.12e-6 0h612v792h-612z" clip-rule="evenodd"/></clipPath><clipPath><path d="m9.12e-6 0h612v792h-612z" clip-rule="evenodd"/></clipPath><clipPath id="dm"><path d="m9.12e-6 0h612v792h-612z" clip-rule="evenodd"/></clipPath><clipPath id="dl"><path d="m9.12e-6 0h612v792h-612z" clip-rule="evenodd"/></clipPath><clipPath><path d="m9.12e-6 0h612v792h-612z" clip-rule="evenodd"/></clipPath><clipPath><path d="m9.12e-6 0h612v792h-612z" clip-rule="evenodd"/></clipPath><clipPath id="dk"><path d="m9.12e-6 0h612v792h-612z" clip-rule="evenodd"/></clipPath><clipPath><path d="m9.12e-6 0h612v792h-612z" clip-rule="evenodd"/></clipPath><clipPath id="dj"><path d="m9.12e-6 0h612v792h-612z" clip-rule="evenodd"/></clipPath><clipPath><path d="m9.12e-6 0h612v792h-612z" clip-rule="evenodd"/></clipPath><clipPath><path d="m9.12e-6 0h612v792h-612z" clip-rule="evenodd"/></clipPath><clipPath id="di"><path d="m9.12e-6 0h612v792h-612z" clip-rule="evenodd"/></clipPath><clipPath><path d="m9.12e-6 0h612v792h-612z" clip-rule="evenodd"/></clipPath><clipPath><path d="m9.12e-6 0h612v792h-612z" clip-rule="evenodd"/></clipPath><clipPath><path d="m9.12e-6 0h612v792h-612z" clip-rule="evenodd"/></clipPath><clipPath><path d="m9.12e-6 0h612v792h-612z" clip-rule="evenodd"/></clipPath><clipPath id="dg"><path d="m9.12e-6 0h612v792h-612z" clip-rule="evenodd"/></clipPath><clipPath><path d="m9.12e-6 0h612v792h-612z" clip-rule="evenodd"/></clipPath><clipPath><path d="m9.12e-6 0h612v792h-612z" clip-rule="evenodd"/></clipPath><clipPath><path d="m9.12e-6 0h612v792h-612z" clip-rule="evenodd"/></clipPath><clipPath id="df"><path d="m9.12e-6 0h612v792h-612z" clip-rule="evenodd"/></clipPath><clipPath><path d="m9.12e-6 0h612v792h-612z" clip-rule="evenodd"/></clipPath><clipPath><path d="m9.12e-6 0h612v792h-612z" clip-rule="evenodd"/></clipPath><clipPath id="de"><path d="m9.12e-6 0h612v792h-612z" clip-rule="evenodd"/></clipPath><clipPath><path d="m9.12e-6 0h612v792h-612z" clip-rule="evenodd"/></clipPath><clipPath><path d="m9.12e-6 0h612v792h-612z" clip-rule="evenodd"/></clipPath><clipPath><path d="m9.12e-6 0h612v792h-612z" clip-rule="evenodd"/></clipPath><clipPath id="dd"><path d="m9.12e-6 0h612v792h-612z" clip-rule="evenodd"/></clipPath><clipPath id="dc"><path d="m9.12e-6 0h612v792h-612z" clip-rule="evenodd"/></clipPath><clipPath id="da"><path d="m9.12e-6 0h612v792h-612z" clip-rule="evenodd"/></clipPath><clipPath><path d="m9.12e-6 0h612v792h-612z" clip-rule="evenodd"/></clipPath><clipPath id="cz"><path d="m9.12e-6 0h612v792h-612z" clip-rule="evenodd"/></clipPath><clipPath><path d="m9.12e-6 0h612v792h-612z" clip-rule="evenodd"/></clipPath><clipPath id="cx"><path d="m9.12e-6 0h612v792h-612z" clip-rule="evenodd"/></clipPath><clipPath><path d="m9.12e-6 0h612v792h-612z" clip-rule="evenodd"/></clipPath><clipPath id="cw"><path d="m9.12e-6 0h612v792h-612z" clip-rule="evenodd"/></clipPath><clipPath id="cv"><path d="m9.12e-6 0h612v792h-612z" clip-rule="evenodd"/></clipPath><clipPath><path d="m9.12e-6 0h612v792h-612z" clip-rule="evenodd"/></clipPath><clipPath><path d="m9.12e-6 0h612v792h-612z" clip-rule="evenodd"/></clipPath><clipPath id="cu"><path d="m9.12e-6 0h612v792h-612z" clip-rule="evenodd"/></clipPath><clipPath><path d="m9.12e-6 0h612v792h-612z" clip-rule="evenodd"/></clipPath><clipPath id="ct"><path d="m9.12e-6 0h612v792h-612z" clip-rule="evenodd"/></clipPath><clipPath id="cs"><path d="m9.12e-6 0h612v792h-612z" clip-rule="evenodd"/></clipPath><clipPath><path d="m9.12e-6 0h612v792h-612z" clip-rule="evenodd"/></clipPath><clipPath><path d="m9.12e-6 0h612v792h-612z" clip-rule="evenodd"/></clipPath><clipPath id="cq"><path d="m9.12e-6 0h612v792h-612z" clip-rule="evenodd"/></clipPath><clipPath><path d="m9.12e-6 0h612v792h-612z" clip-rule="evenodd"/></clipPath><clipPath><path d="m9.12e-6 0h612v792h-612z" clip-rule="evenodd"/></clipPath><clipPath id="cp"><path d="m9.12e-6 0h612v792h-612z" clip-rule="evenodd"/></clipPath><clipPath><path d="m9.12e-6 0h612v792h-612z" clip-rule="evenodd"/></clipPath><clipPath id="co"><path d="m9.12e-6 0h612v792h-612z" clip-rule="evenodd"/></clipPath><clipPath id="cn"><path d="m9.12e-6 0h612v792h-612z" clip-rule="evenodd"/></clipPath><clipPath id="cm"><path d="m9.12e-6 0h612v792h-612z" clip-rule="evenodd"/></clipPath><clipPath id="cl"><path d="m9.12e-6 0h612v792h-612z" clip-rule="evenodd"/></clipPath><clipPath id="ck"><path d="m9.12e-6 0h612v792h-612z" clip-rule="evenodd"/></clipPath><clipPath><path d="m9.12e-6 0h612v792h-612z" clip-rule="evenodd"/></clipPath><clipPath id="cj"><path d="m9.12e-6 0h612v792h-612z" clip-rule="evenodd"/></clipPath><clipPath><path d="m9.12e-6 0h612v792h-612z" clip-rule="evenodd"/></clipPath><clipPath><path d="m9.12e-6 0h612v792h-612z" clip-rule="evenodd"/></clipPath><clipPath id="ch"><path d="m9.12e-6 0h612v792h-612z" clip-rule="evenodd"/></clipPath><clipPath><path d="m9.12e-6 0h612v792h-612z" clip-rule="evenodd"/></clipPath><clipPath><path d="m9.12e-6 0h612v792h-612z" clip-rule="evenodd"/></clipPath><clipPath><path d="m9.12e-6 0h612v792h-612z" clip-rule="evenodd"/></clipPath><clipPath id="cg"><path d="m9.12e-6 0h612v792h-612z" clip-rule="evenodd"/></clipPath><clipPath><path d="m9.12e-6 0h612v792h-612z" clip-rule="evenodd"/></clipPath><clipPath id="cf"><path d="m9.12e-6 0h612v792h-612z" clip-rule="evenodd"/></clipPath><clipPath><path d="m9.12e-6 0h612v792h-612z" clip-rule="evenodd"/></clipPath><clipPath id="ce"><path d="m9.12e-6 0h612v792h-612z" clip-rule="evenodd"/></clipPath><clipPath><path d="m9.12e-6 0h612v792h-612z" clip-rule="evenodd"/></clipPath><clipPath id="cc"><path d="m9.12e-6 0h612v792h-612z" clip-rule="evenodd"/></clipPath><clipPath><path d="m9.12e-6 0h612v792h-612z" clip-rule="evenodd"/></clipPath><clipPath id="cb"><path d="m9.12e-6 0h612v792h-612z" clip-rule="evenodd"/></clipPath><clipPath><path d="m9.12e-6 0h612v792h-612z" clip-rule="evenodd"/></clipPath><clipPath><path d="m9.12e-6 0h612v792h-612z" clip-rule="evenodd"/></clipPath><clipPath id="ca"><path d="m9.12e-6 0h612v792h-612z" clip-rule="evenodd"/></clipPath><clipPath><path d="m9.12e-6 0h612v792h-612z" clip-rule="evenodd"/></clipPath><clipPath id="bz"><path d="m9.12e-6 0h612v792h-612z" clip-rule="evenodd"/></clipPath><clipPath id="by"><path d="m9.12e-6 0h612v792h-612z" clip-rule="evenodd"/></clipPath><clipPath><path d="m9.12e-6 0h612v792h-612z" clip-rule="evenodd"/></clipPath><clipPath id="bx"><path d="m9.12e-6 0h612v792h-612z" clip-rule="evenodd"/></clipPath><clipPath><path d="m9.12e-6 0h612v792h-612z" clip-rule="evenodd"/></clipPath><clipPath><path d="m9.12e-6 0h612v792h-612z" clip-rule="evenodd"/></clipPath><clipPath><path d="m9.12e-6 0h612v792h-612z" clip-rule="evenodd"/></clipPath><clipPath><path d="m9.12e-6 0h612v792h-612z" clip-rule="evenodd"/></clipPath><clipPath id="bv"><path d="m9.12e-6 0h612v792h-612z" clip-rule="evenodd"/></clipPath><clipPath id="bu"><path d="m9.12e-6 0h612v792h-612z" clip-rule="evenodd"/></clipPath><clipPath><path d="m9.12e-6 0h612v792h-612z" clip-rule="evenodd"/></clipPath><clipPath><path d="m9.12e-6 0h612v792h-612z" clip-rule="evenodd"/></clipPath><clipPath id="bt"><path d="m9.12e-6 0h612v792h-612z" clip-rule="evenodd"/></clipPath><clipPath><path d="m9.12e-6 0h612v792h-612z" clip-rule="evenodd"/></clipPath><clipPath id="bs"><path d="m9.12e-6 0h612v792h-612z" clip-rule="evenodd"/></clipPath><clipPath><path d="m9.12e-6 0h612v792h-612z" clip-rule="evenodd"/></clipPath><clipPath><path d="m9.12e-6 0h612v792h-612z" clip-rule="evenodd"/></clipPath><clipPath id="br"><path d="m9.12e-6 0h612v792h-612z" clip-rule="evenodd"/></clipPath><clipPath><path d="m9.12e-6 0h612v792h-612z" clip-rule="evenodd"/></clipPath><clipPath id="bq"><path d="m9.12e-6 0h612v792h-612z" clip-rule="evenodd"/></clipPath><clipPath id="bp"><path d="m9.12e-6 0h612v792h-612z" clip-rule="evenodd"/></clipPath><clipPath id="bo"><path d="m9.12e-6 0h612v792h-612z" clip-rule="evenodd"/></clipPath><clipPath><path d="m9.12e-6 0h612v792h-612z" clip-rule="evenodd"/></clipPath><clipPath id="bn"><path d="m9.12e-6 0h612v792h-612z" clip-rule="evenodd"/></clipPath><clipPath><path d="m9.12e-6 0h612v792h-612z" clip-rule="evenodd"/></clipPath><clipPath id="bm"><path d="m9.12e-6 0h612v792h-612z" clip-rule="evenodd"/></clipPath><clipPath><path d="m9.12e-6 0h612v792h-612z" clip-rule="evenodd"/></clipPath><clipPath><path d="m9.12e-6 0h612v792h-612z" clip-rule="evenodd"/></clipPath><clipPath id="bl"><path d="m9.12e-6 0h612v792h-612z" clip-rule="evenodd"/></clipPath><clipPath><path d="m9.12e-6 0h612v792h-612z" clip-rule="evenodd"/></clipPath><clipPath id="bk"><path d="m9.12e-6 0h612v792h-612z" clip-rule="evenodd"/></clipPath><clipPath id="bj"><path d="m9.12e-6 0h612v792h-612z" clip-rule="evenodd"/></clipPath><clipPath><path d="m9.12e-6 0h612v792h-612z" clip-rule="evenodd"/></clipPath><clipPath id="bi"><path d="m9.12e-6 0h612v792h-612z" clip-rule="evenodd"/></clipPath><clipPath><path d="m9.12e-6 0h612v792h-612z" clip-rule="evenodd"/></clipPath><clipPath id="bf"><path d="m9.12e-6 0h612v792h-612z" clip-rule="evenodd"/></clipPath><clipPath id="be"><path d="m9.12e-6 0h612v792h-612z" clip-rule="evenodd"/></clipPath><clipPath><path d="m9.12e-6 0h612v792h-612z" clip-rule="evenodd"/></clipPath><clipPath><path d="m9.12e-6 0h612v792h-612z" clip-rule="evenodd"/></clipPath><clipPath><path d="m9.12e-6 0h612v792h-612z" clip-rule="evenodd"/></clipPath><clipPath><path d="m9.12e-6 0h612v792h-612z" clip-rule="evenodd"/></clipPath><clipPath id="bd"><path d="m9.12e-6 0h612v792h-612z" clip-rule="evenodd"/></clipPath><clipPath><path d="m9.12e-6 0h612v792h-612z" clip-rule="evenodd"/></clipPath><clipPath id="bc"><path d="m9.12e-6 0h612v792h-612z" clip-rule="evenodd"/></clipPath><clipPath><path d="m9.12e-6 0h612v792h-612z" clip-rule="evenodd"/></clipPath><clipPath id="bb"><path d="m9.12e-6 0h612v792h-612z" clip-rule="evenodd"/></clipPath><clipPath><path d="m9.12e-6 0h612v792h-612z" clip-rule="evenodd"/></clipPath><clipPath><path d="m9.12e-6 0h612v792h-612z" clip-rule="evenodd"/></clipPath><clipPath id="ba"><path d="m9.12e-6 0h612v792h-612z" clip-rule="evenodd"/></clipPath><clipPath><path d="m9.12e-6 0h612v792h-612z" clip-rule="evenodd"/></clipPath><clipPath id="az"><path d="m9.12e-6 0h612v792h-612z" clip-rule="evenodd"/></clipPath><clipPath id="ay"><path d="m9.12e-6 0h612v792h-612z" clip-rule="evenodd"/></clipPath><clipPath id="ax"><path d="m9.12e-6 0h612v792h-612z" clip-rule="evenodd"/></clipPath><clipPath><path d="m9.12e-6 0h612v792h-612z" clip-rule="evenodd"/></clipPath><clipPath id="av"><path d="m9.12e-6 0h612v792h-612z" clip-rule="evenodd"/></clipPath><clipPath><path d="m9.12e-6 0h612v792h-612z" clip-rule="evenodd"/></clipPath><clipPath id="au"><path d="m9.12e-6 0h612v792h-612z" clip-rule="evenodd"/></clipPath><clipPath><path d="m9.12e-6 0h612v792h-612z" clip-rule="evenodd"/></clipPath><clipPath><path d="m9.12e-6 0h612v792h-612z" clip-rule="evenodd"/></clipPath><clipPath id="at"><path d="m9.12e-6 0h612v792h-612z" clip-rule="evenodd"/></clipPath><clipPath><path d="m9.12e-6 0h612v792h-612z" clip-rule="evenodd"/></clipPath><clipPath id="as"><path d="m9.12e-6 0h612v792h-612z" clip-rule="evenodd"/></clipPath><clipPath><path d="m9.12e-6 0h612v792h-612z" clip-rule="evenodd"/></clipPath><clipPath><path d="m9.12e-6 0h612v792h-612z" clip-rule="evenodd"/></clipPath><clipPath><path d="m9.12e-6 0h612v792h-612z" clip-rule="evenodd"/></clipPath><clipPath id="ar"><path d="m9.12e-6 0h612v792h-612z" clip-rule="evenodd"/></clipPath><clipPath><path d="m9.12e-6 0h612v792h-612z" clip-rule="evenodd"/></clipPath><clipPath><path d="m9.12e-6 0h612v792h-612z" clip-rule="evenodd"/></clipPath><clipPath id="aq"><path d="m9.12e-6 0h612v792h-612z" clip-rule="evenodd"/></clipPath><clipPath><path d="m9.12e-6 0h612v792h-612z" clip-rule="evenodd"/></clipPath><clipPath id="ap"><path d="m9.12e-6 0h612v792h-612z" clip-rule="evenodd"/></clipPath><clipPath><path d="m9.12e-6 0h612v792h-612z" clip-rule="evenodd"/></clipPath><clipPath><path d="m9.12e-6 0h612v792h-612z" clip-rule="evenodd"/></clipPath><clipPath id="ao"><path d="m9.12e-6 0h612v792h-612z" clip-rule="evenodd"/></clipPath><clipPath id="an"><path d="m9.12e-6 0h612v792h-612z" clip-rule="evenodd"/></clipPath><clipPath><path d="m9.12e-6 0h612v792h-612z" clip-rule="evenodd"/></clipPath><clipPath id="al"><path d="m9.12e-6 0h612v792h-612z" clip-rule="evenodd"/></clipPath><clipPath><path d="m9.12e-6 0h612v792h-612z" clip-rule="evenodd"/></clipPath><clipPath id="ak"><path d="m9.12e-6 0h612v792h-612z" clip-rule="evenodd"/></clipPath><clipPath id="aj"><path d="m9.12e-6 0h612v792h-612z" clip-rule="evenodd"/></clipPath><clipPath><path d="m9.12e-6 0h612v792h-612z" clip-rule="evenodd"/></clipPath></defs><g transform="matrix(1.3333 0 0 -1.3333 0 1056)"><g clip-path="url(#db)"><g clip-path="url(#bh)"><text transform="matrix(1,0,0,-1,280.37,730.32)" fill="#000000" font-family="TimesNewRomanPS" font-size="11.04px" font-weight="bold"><tspan x="0 6.74544 9.8145599 14.74944 19.651199 24.46464 29.3664 32.1264 40.097279 45.617279" y="0">Pierre Yan</tspan></text>
</g>
</g><g clip-path="url(#ef)"><text transform="matrix(1,0,0,-1,166.82,706.06)" fill="#000000" font-family="TimesNewRomanPSMT" font-size="11.04px"><tspan x="0 5.52 8.6332798 13.53504 17.15616 20.865601 25.767361 31.188 36.08976" y="0">pierreyan</tspan></text>
</g><g clip-path="url(#dy)"><text transform="matrix(1,0,0,-1,208.49,706.06)" fill="#000000" font-family="TimesNewRomanPSMT" font-size="11.04px"><tspan x="0 10.07952 14.98128 20.50128 23.5152 26.628481 31.530239 36.950878 41.852638 44.61264 50.132641 54.946079 58.655521 64.175522 68.977921 72.687363 78.207359 80.845917 85.747681 91.267677" y="0">@college.harvard.edu</tspan></text>
</g><g clip-path="url(#do)"><text transform="matrix(1,0,0,-1,308.09,706.06)" fill="#000000" font-family="TimesNewRomanPSMT" font-size="11.04px"><tspan x="0 3.8399999" y="0">• </tspan></text>
</g><g clip-path="url(#dh)"><text transform="matrix(1,0,0,-1,314.69,706.06)" fill="#000000" font-family="TimesNewRomanPSMT" font-size="11.04px"><tspan x="0 5.52 11.04 16.559999 21.958561 27.478559 32.998562 38.518559 44.038559 49.558559" y="0">2674674826</tspan></text>
</g><g clip-path="url(#cy)"><text transform="matrix(1,0,0,-1,372.55,706.06)" fill="#000000" font-family="TimesNewRomanPSMT" font-size="11.04px"><tspan x="0 3.8399999" y="0">• </tspan></text>
</g><g clip-path="url(#cr)"><text transform="matrix(1,0,0,-1,379.15,706.06)" fill="#000000" font-family="TimesNewRomanPSMT" font-size="11.04px"><tspan x="0" y="0">P</tspan></text>
</g><g clip-path="url(#ci)"><text transform="matrix(1,0,0,-1,385.15,706.06)" fill="#000000" font-family="TimesNewRomanPSMT" font-size="11.04px"><tspan x="0 3.1132801 7.9156799 11.62512 15.22416" y="0">ierre</tspan></text>
</g><g clip-path="url(#cd)"><text transform="matrix(1,0,0,-1,405.19,706.06)" fill="#000000" font-family="TimesNewRomanPSMT" font-size="11.04px"><tspan x="0" y="0">Y</tspan></text>
</g><g clip-path="url(#bw)"><text transform="matrix(1,0,0,-1,413.11,706.06)" fill="#000000" font-family="TimesNewRomanPSMT" font-size="11.04px"><tspan x="0 4.9017601 10.42176 13.18176 18.1056 23.50416" y="0">an.com</tspan></text>
</g><g clip-path="url(#bg)"><text transform="matrix(1,0,0,-1,281.93,679.66)" fill="#000000" font-family="TimesNewRomanPS" font-size="11.04px" font-weight="bold"><tspan x="0 7.31952 13.45776 19.56288 24.46464 29.98464 33.71616 36.71904 42.23904" y="0">Education</tspan></text>
</g><g clip-path="url(#aw)"><text transform="matrix(1,0,0,-1,36,666.46)" fill="#000000" font-family="TimesNewRomanPS" font-size="11.04px" font-weight="bold"><tspan x="0 8.2799997 15.8424 23.4048 31.210079 38.77248 46.456322" y="0">HARVARD</tspan></text>
</g><g clip-path="url(#am)"><text transform="matrix(1,0,0,-1,92.664,666.46)" fill="#000000" font-family="TimesNewRomanPS" font-size="11.04px" font-weight="bold"><tspan x="0 7.9156799 15.83136 20.125919 28.18512 35.504639 43.420319 49.558559 53.853119 61.183681" y="0">UNIVERSITY</tspan></text>
</g><g clip-path="url(#ai)"><text transform="matrix(1,0,0,-1,504.58,666.46)" fill="#000000" font-family="TimesNewRomanPSMT" font-size="11.04px"><tspan x="0 7.31952 12.22128 20.865601 26.385599 29.98464 33.097919 38.61792 44.016479 48.91824" y="0">Cambridge,</tspan></text>
</g><g clip-path="url(#ah)"><text transform="matrix(1,0,0,-1,558.94,666.46)" fill="#000000" font-family="TimesNewRomanPSMT" font-size="11.04px"><tspan x="0 9.8399601" y="0">MA</tspan></text>
</g><g clip-path="url(#ag)"><text transform="matrix(1,0,0,-1,36,653.14)" fill="#000000" font-family="TimesNewRomanPSMT" font-size="11.04px"><tspan x="0 7.91998 15.23276" y="0">AB </tspan></text>
</g><g clip-path="url(#af)"><text transform="matrix(1,0,0,-1,54,653.14)" fill="#000000" font-family="TimesNewRomanPSMT" font-size="11.04px"><tspan x="0 7.31952 12.22128 17.74128 23.26128 26.385599 31.9056 36.708 39.821281 44.723042" y="0">Candidate </tspan></text>
</g><g clip-path="url(#ae)"><text transform="matrix(1,0,0,-1,101.42,653.14)" fill="#000000" font-family="TimesNewRomanPSMT" font-size="11.04px"><tspan x="0 3.1132801 8.6332798 11.39328 18.712799 24.111361 32.74464 38.264641 43.784641 46.787521 51.689281 55.310398 58.0704 64.208641 69.110397 72.223679 77.125443 82.546082 87.447838 92.371681 95.131683 99.934082 105.45408 110.97408 113.73408 123.54864 128.96928 132.08257 136.88496 141.78671 147.30672 150.32063 155.2224 158.95392 161.59248 166.49425 172.01424 177.43488 180.19489 187.5144 192.41615 195.54048 198.65376 204.05232 207.1656 211.968 215.67744 218.43744 225.75696 228.87024 234.2688 237.38208 242.90208 248.42207" y="0">in Computer Science and Molecular and Cellular Biology</tspan></text>
</g><g clip-path="url(#ad)"><text transform="matrix(1,0,0,-1,355.39,653.14)" fill="#000000" font-family="TimesNewRomanPSMT" font-size="11.04px"><tspan x="0 2.76" y="0">. </tspan></text>
</g><g clip-path="url(#ac)"><text transform="matrix(1,0,0,-1,360.91,653.14)" fill="#000000" font-family="TimesNewRomanPSMT" font-size="11.04px"><tspan x="0 7.5623999 13.32528" y="0">GPA</tspan></text>
</g><g clip-path="url(#ab)"><text transform="matrix(1,0,0,-1,383.47,653.14)" fill="#000000" font-family="TimesNewRomanPSMT" font-size="11.04px"><tspan x="0 4.4380798 6.2375998" y="0">3.8</tspan></text>
</g><g clip-path="url(#aa)"><text transform="matrix(1,0,0,-1,394.15,653.14)" fill="#000000" font-family="TimesNewRomanPSMT" font-size="11.04px"><tspan x="0" y="0">2</tspan></text>
</g><g clip-path="url(#z)"><text transform="matrix(1,0,0,-1,530.62,653.14)" fill="#000000" font-family="TimesNewRomanPSMT" font-size="11.04px"><tspan x="0 9.7152004 14.61696 20.136959" y="0">May </tspan></text>
</g><g clip-path="url(#y)"><text transform="matrix(1,0,0,-1,553.54,653.14)" fill="#000000" font-family="TimesNewRomanPSMT" font-size="11.04px"><tspan x="0 5.52 11.04 16.43856" y="0">2024</tspan></text>
</g><g clip-path="url(#x)"><text transform="matrix(1,0,0,-1,36,640.06)" fill="#000000" font-family="TimesNewRomanPSMT" font-size="11.04px"><tspan x="0 7.31952 12.22128 15.3456 20.24736 25.767361 30.580799 36.1008 39.214081 41.974079 49.293598 54.813599 60.212158 63.9216 68.116798 73.018562 80.989441 86.509438 90.18576 95.59536 98.708641" y="0">Relevant Coursework: </tspan></text>
</g><g clip-path="url(#w)"><text transform="matrix(1,0,0,-1,137.54,640.06)" fill="#000000" font-family="TimesNewRomanPSMT" font-size="11.04px"><tspan x="0 6.74544 12.26544 17.034719 22.55472 26.26416 29.377439 34.17984 39.0816 42.205921 44.965919 51.567841 54.681122 60.201118 65.003517 69.905281 73.636803 76.396797 84.20208 87.315361 92.835358 97.737122 103.15776 106.8672 111.76896" y="0">Theorical Linear Algebra.</tspan></text>
</g><g clip-path="url(#v)"><text transform="matrix(1,0,0,-1,254.93,640.06)" fill="#000000" font-family="TimesNewRomanPSMT" font-size="11.04px"><tspan x="0 6.74544 12.12192 17.02368 22.444321 26.153761 29.26704 34.069439 38.971199 42.09552 44.734081 54.548641 60.068642 63.093601 66.206879 69.209763 74.729759 79.631523 83.25264 86.365921 91.16832 94.281601 99.183357 101.94336 109.30704 114.07632 117.1896 122.09136 127.512 130.62527 136.14528 140.43983 143.10048 148.00224 153.52225 159.04224 161.80225 169.16592 174.06767 178.85904 181.97232 184.73232 192.64799 198.168 202.9704 206.08368 211.60368 215.79887 218.91216" y="0">Theorical Multivariate Calculus and Real Analysis</tspan></text>
</g><g clip-path="url(#u)"><text transform="matrix(1,0,0,-1,138.02,627.22)" fill="#000000" font-family="TimesNewRomanPSMT" font-size="11.04px"><tspan x="0 7.31952 12.83952 21.472799 26.9928 32.391361 35.504639 40.406399 44.13792 46.897919 52.892639 58.41264 62.707199 65.732162 70.633919 79.167839 83.462402 86.222397 88.982399 96.346077 101.72256 110.35584 115.87584 118.87872 121.8816 126.78336 130.51488 134.80943 137.56944 140.32944 148.1568 151.27008 156.79008 162.31007 165.90912 169.0224 172.02528 177.54527 186.06816 190.36272 193.12273 195.88272 205.63104 210.53281 215.45663 220.85519 223.96848 229.48848 234.39024 237.15024 243.7632 248.66496 253.58881 257.29825 262.69681 265.81009 271.33008" y="0">Computer Systems, Compilers, Algorithms, Machine Learning</tspan></text>
</g><g clip-path="url(#t)"><text transform="matrix(1,0,0,-1,36,614.5)" fill="#000000" font-family="TimesNewRomanPSMT" font-size="11.04px"><tspan x="0 7.31952 12.83952 21.472799 29.99568 33.108959 36.111839 38.871841 44.391842 47.15184 52.671841 58.191841 63.590401 67.299843 71.594398 74.354401 79.77504 84.676804 88.408318 91.16832 99.084 103.8864 108.78816 114.30816 117.06816 120.08208 125.60208 128.36208 131.47536 136.99536 141.89713 144.65712 152.62801 157.39728 161.10672 166.62672 171.42912 175.13857 180.65855 183.41856 191.33424 196.85423 202.25281 207.15456 210.88608 216.28464 219.99408 224.89584 230.41583 235.83649 240.63889 243.75217 248.65392 251.41393 258.77759 264.29761 269.8176 275.19409 278.30737 281.31024 286.21201 290.53967 293.29968 300.6192 303.62207 309.14209" y="0">Commit 5 hours per week to the Harvard Undergraduate Robotics Club</tspan></text>
</g><g clip-path="url(#r)"><text transform="matrix(1,0,0,-1,36,588.1)" fill="#000000" font-family="TimesNewRomanPS" font-size="11.04px" font-weight="bold"><tspan x="0" y="0">H</tspan></text>
</g><g clip-path="url(#q)"><text transform="matrix(1,0,0,-1,44.64,588.1)" fill="#000000" font-family="TimesNewRomanPS" font-size="11.04px" font-weight="bold"><tspan x="0 7.9156799 15.83136 23.74704 32.380322 40.296001 47.041439 51.335999 58.655521 65.975037 73.890717 76.650719 87.072479 94.436157 104.72544 113.24832 121.164 125.45856 133.42944 140.72688 143.48688 152.12016 156.31535 164.94864 173.58192 176.34192 182.48016 190.26337 198.78624 207.41953 216.0528 223.37231" y="0">ADDONFIELD MEMORIAL HIGH SCHOOL </tspan></text>
</g><g clip-path="url(#p)"><text transform="matrix(1,0,0,-1,471.7,588.1)" fill="#000000" font-family="TimesNewRomanPSMT" font-size="11.04px"><tspan x="0 7.6838398 12.48624 17.763359 23.161921 28.56048 33.837601 37.315201 40.318081 44.999039 47.880482" y="0">Haddonfield</tspan></text>
</g><g clip-path="url(#o)"><text transform="matrix(1,0,0,-1,524.98,588.1)" fill="#000000" font-family="TimesNewRomanPSMT" font-size="11.04px"><tspan x="0" y="0">,</tspan></text>
</g><g clip-path="url(#n)"><text transform="matrix(1,0,0,-1,530.14,588.1)" fill="#000000" font-family="TimesNewRomanPSMT" font-size="11.04px"><tspan x="0 7.9156799 12.81744 20.788321 23.548321 27.7104 32.61216 36.343681 40.538879 45.440639" y="0">New Jersey</tspan></text>
</g><g clip-path="url(#l)"><text transform="matrix(1,0,0,-1,36,574.9)" fill="#000000" font-family="TimesNewRomanPSMT" font-size="11.04px"><tspan x="0 7.9156799 11.62512 16.52688 22.046881 27.566879 32.380322 35.493599 40.395359 45.915359 48.675362 56.49168 59.604961 62.718239 68.238243 70.998238 78.913918 86.829597 92.967842 95.727837 103.63248 109.15248 114.67248 120.07104 123.78048 128.07504 130.83504 133.59505 139.73328 147.66 154.40544 157.47456 160.13519 169.94975 173.08511 175.72368 181.24368 186.76369 192.28368 195.04369 202.95937 205.96223 211.48224 217.00224" y="0">Graduated with NHS Honors. SAT: M: 800 V:790</tspan></text>
</g><g clip-path="url(#k)"><text transform="matrix(1,0,0,-1,534.82,574.9)" fill="#000000" font-family="TimesNewRomanPSMT" font-size="11.04px"><tspan x="0 4.29456 9.7152004 15.2352 20.136959 22.896959 28.41696 33.837601 39.357601" y="0">June 2020</tspan></text>
</g><g clip-path="url(#j)"><text transform="matrix(1,0,0,-1,36,561.7)" fill="#000000" font-family="TimesNewRomanPSMT" font-size="11.04px"><tspan x="0 7.9156799 12.81744 15.94176 19.05504 24.575041 29.9736 34.875359 37.99968 40.638241 50.452801 55.277279 58.986721 61.989601 65.102882 67.862877 74.001122 76.981918 82.501923 87.403679 90.417603 93.530884 97.726082 100.83936 103.59936" y="0">National Merit Finalist. </tspan></text>
</g><g clip-path="url(#i)"><text transform="matrix(1,0,0,-1,142.46,561.7)" fill="#000000" font-family="TimesNewRomanPSMT" font-size="11.04px"><tspan x="0 7.9156799 11.51472 21.329281 28.07472 30.834721 36.972961 40.04208 45.473759 50.375519 53.389439 56.50272 60.697922 63.811199 66.571198" y="0">AIME Finalist. </tspan></text>
</g><g clip-path="url(#h)"><text transform="matrix(1,0,0,-1,211.85,561.7)" fill="#000000" font-family="TimesNewRomanPSMT" font-size="11.04px"><tspan x="0 7.9156799 12.81744 16.43856 20.73312 23.75808 26.871361 32.391361 35.15136 41.896801 46.798561 52.186081 57.706081 60.708961 65.003517 67.763519 74.508957 79.410721 84.224159 92.857437 95.617439 102.93696 107.83872 113.25936 116.37264 121.17504 124.28832" y="0">Varsity Tennis Team Captain</tspan></text>
</g><g clip-path="url(#g)"><text transform="matrix(1,0,0,-1,341.71,561.7)" fill="#000000" font-family="TimesNewRomanPSMT" font-size="11.04px"><tspan x="0 2.76" y="0">. </tspan></text>
</g><g clip-path="url(#e)"><text transform="matrix(1,0,0,-1,347.23,561.7)" fill="#000000" font-family="TimesNewRomanPSMT" font-size="11.04px"><tspan x="0 7.31952 12.83952 18.35952 23.75808 26.871361 29.874241 34.776001 39.10368 41.742241 48.487679 53.389439 58.291199 66.935516 69.695518 75.690239 79.399681 84.20208 88.496643 91.632004 97.030563 101.93232 107.45232" y="0">Robotics Team President</tspan></text>
</g><g clip-path="url(#d)"><text transform="matrix(1,0,0,-1,30,508.87)" fill="#000000" font-family="TimesNewRomanPS" font-size="11.04px" font-weight="bold"><tspan x="0 7.9156799 15.2352 22.55472 29.300159 39.72192 47.6376" y="0">DEEPMAP</tspan></text>
</g><g clip-path="url(#c)"><text transform="matrix(1,0,0,-1,279.77,522.07)" fill="#000000" font-family="TimesNewRomanPS" font-size="11.04px" font-weight="bold"><tspan x="0 7.31952 12.83952 18.97776 23.87952 28.781281 31.9056 36.708 42.846241 47.748001" y="0">Experience</tspan></text>
</g><g clip-path="url(#b)"><text transform="matrix(1,0,0,-1,518.26,509.83)" fill="#000000" font-family="TimesNewRomanPSMT" font-size="11.04px"><tspan x="0 5.99472 10.89648 14.0208 19.5408 22.3008 30.106079 33.21936 36.332642" y="0">Palo Alto</tspan></text>
</g><g clip-path="url(#a)"><text transform="matrix(1,0,0,-1,560.02,509.83)" fill="#000000" font-family="TimesNewRomanPSMT" font-size="11.04px"><tspan x="0 2.76" y="0">, </tspan></text>
</g><g clip-path="url(#ep)"><text transform="matrix(1,0,0,-1,565.54,509.83)" fill="#000000" font-family="TimesNewRomanPSMT" font-size="11.04px"><tspan x="0 7.3199801" y="0">CA</tspan></text>
</g><g clip-path="url(#eo)"><text transform="matrix(1,0,0,-1,30,495.91)" fill="#000000" font-family="TimesNewRomanPS" font-size="11.04px" font-weight="bold"><tspan x="0 6.1382399 11.65824 15.33456 18.955681 26.98176 32.501759 37.304161 42.205921 44.965919 52.329601 58.423679 63.94368 67.056961 73.051682 77.953438 82.877281 87.67968 90.792961 96.931198 102.4512 105.2112 109.50576 115.51152 119.11056 124.01232 128.93616" y="0">Software Engineering Intern</tspan></text>
</g><g clip-path="url(#en)"><text transform="matrix(1,0,0,-1,470.38,495.91)" fill="#000000" font-family="TimesNewRomanPSMT" font-size="11.04px"><tspan x="0 9.8399601 14.76712" y="0">May</tspan></text>
</g><g clip-path="url(#em)"><text transform="matrix(1,0,0,-1,493.42,495.91)" fill="#000000" font-family="TimesNewRomanPSMT" font-size="11.04px"><tspan x="0 5.1599998" y="0">20</tspan></text>
</g><g clip-path="url(#el)"><text transform="matrix(1,0,0,-1,503.74,495.91)" fill="#000000" font-family="TimesNewRomanPSMT" font-size="11.04px"><tspan x="0 5.1599998" y="0">21</tspan></text>
</g><g clip-path="url(#ek)"><text transform="matrix(1,0,0,-1,516.46,495.91)" fill="#000000" font-family="TimesNewRomanPSMT" font-size="11.04px"><tspan x="0" y="0">–</tspan></text>
</g><g clip-path="url(#ej)"><text transform="matrix(1,0,0,-1,524.74,495.91)" fill="#000000" font-family="TimesNewRomanPSMT" font-size="11.04px"><tspan x="0 7.9156799 13.43568 18.955681 24.475679 28.770241" y="0">August</tspan></text>
</g><g clip-path="url(#ei)"><text transform="matrix(1,0,0,-1,558.7,495.91)" fill="#000000" font-family="TimesNewRomanPSMT" font-size="11.04px"><tspan x="0 5.1599998" y="0">20</tspan></text>
</g><g clip-path="url(#eh)"><text transform="matrix(1,0,0,-1,569.02,495.91)" fill="#000000" font-family="TimesNewRomanPSMT" font-size="11.04px"><tspan x="0 5.1599998" y="0">21</tspan></text>
</g><g clip-path="url(#eg)"><text transform="matrix(1,0,0,-1,54,482.35)" fill="#000000" font-family="SymbolMT" font-size="11.04px"><tspan x="0" y="0">•</tspan></text>
</g><g clip-path="url(#ee)"><text transform="matrix(1,0,0,-1,72.024,482.35)" fill="#000000" font-family="TimesNewRomanPSMT" font-size="11.04px"><tspan x="0 10.42176 15.94176 19.673281 25.07184 29.9736 35.493599 38.253601 43.773602 49.293598 51.954239 55.06752 60.587521 65.489281 68.249283 73.669922 78.571678 81.585602 84.698883 90.21888 95.021278 98.13456 101.13744 106.65744 112.17744 114.93744 119.73984 125.25984 130.77985 133.53984 139.05984 144.57983 149.38223 152.49551 155.4984 158.61168 164.13168 166.89168 171.69408 175.98865 180.32736 185.84737 189.4464 194.34816 199.86816 204.68159 209.58336 212.34335 217.86336 220.87727 226.39728 231.29904 234.31296 237.31584 242.83585 247.73759 250.4976 256.01761 260.23489 263.34818 268.86816 274.38815 277.14816 285.06384 290.58383 293.58673 298.48849 304.00848 309.52847 312.18912 315.3024 318.41568 323.81424 327.52368 332.32608 336.03552 339.03839 343.94016 348.26785 351.02783 355.22305 360.74304 365.64481 371.16479 373.9248 378.84863 383.14319 385.80383 390.09839 395.61841 401.1384 405.96289 411.48288 420.00577 424.90753 427.92145 431.63089 437.15088" y="0">Worked on the validation and quality assurance pipeline using Golang libraries such as s2geometry.</tspan></text>
</g><g clip-path="url(#ed)"><text transform="matrix(1,0,0,-1,54,468.43)" fill="#000000" font-family="SymbolMT" font-size="11.04px"><tspan x="0" y="0">•</tspan></text>
</g><g clip-path="url(#ec)"><text transform="matrix(1,0,0,-1,72.024,468.43)" fill="#000000" font-family="TimesNewRomanPSMT" font-size="11.04px"><tspan x="0 7.9156799 12.81744 18.33744 23.26128 26.374559 31.89456 37.293121 42.194881 47.714882 50.375519 53.4888 59.008801 64.528801 67.531677 71.826241 74.586243 78.317757 83.716316 87.425758 90.18576 95.705757 100.50816 106.02816 114.55104" y="0">Developed tools for geome</tspan></text>
</g><g clip-path="url(#eb)"><text transform="matrix(1,0,0,-1,191.57,468.43)" fill="#000000" font-family="TimesNewRomanPSMT" font-size="11.04px"><tspan x="0 3.0028801 6.7123199 9.8255997 14.72736 17.388 22.289761 27.809759 33.329762 36.08976 40.903198 44.016479 47.01936 50.728802 53.731682 59.251678 64.771683 67.774559 72.676323 75.436317 79.057442 83.959198 87.083519 91.885918 94.999199 98.002083 103.52208 109.04208 113.33664 116.09664 121.51728 126.41904 129.54337 137.45905 142.36079 147.28464 152.6832 155.44321 160.9632 166.4832 172.0032 176.19839 179.31168 184.21344 189.02689 192.14017 194.77872 198.48816 203.38992 208.20335 211.31664 216.83664 220.43568 225.33743 228.09744 233.61745 239.13744 241.79808 246.69984 249.45984" y="0">tric and attribute relations between physical feature on a 3</tspan></text>
</g><g clip-path="url(#ea)"><text transform="matrix(1,0,0,-1,446.71,468.43)" fill="#000000" font-family="TimesNewRomanPSMT" font-size="11.04px"><tspan x="0" y="0">-</tspan></text>
</g><g clip-path="url(#dz)"><text transform="matrix(1,0,0,-1,450.34,468.43)" fill="#000000" font-family="TimesNewRomanPSMT" font-size="11.04px"><tspan x="0 5.52 8.6332798 17.15616 22.05792 27.577921 31.7952 34.908482 40.428478 45.948479 50.750881 53.864159 56.50272 59.616001 65.136002 70.655998 76.054558 79.167839 84.687843 90.20784 95.727837" y="0">dimensional topology.</tspan></text>
</g><g clip-path="url(#dx)"><text transform="matrix(1,0,0,-1,30,442.15)" fill="#000000" font-family="TimesNewRomanPS" font-size="11.04px" font-weight="bold"><tspan x="0 7.9156799 15.83136 20.125919 28.18512 35.504639 43.420319 49.558559 53.853119 61.183681 69.099358 71.85936 80.492638 87.238083 89.998077 96.688316 104.00784 111.92352 119.7288 125.86704 133.77168 141.0912 149.11728 157.03296 164.94864 169.24319 177.21408" y="0">UNIVERSITY OF PENNSYLVANIA </tspan></text>
</g><g clip-path="url(#dw)"><text transform="matrix(1,0,0,-1,507.1,442.15)" fill="#000000" font-family="TimesNewRomanPSMT" font-size="11.04px"><tspan x="0 5.8843198 11.28288 14.16432 17.045759 21.84816 27.12528 31.927679 34.80912 40.20768 45.484798 48.487679" y="0">Philadelphia</tspan></text>
</g><g clip-path="url(#dv)"><text transform="matrix(1,0,0,-1,560.26,442.15)" fill="#000000" font-family="TimesNewRomanPSMT" font-size="11.04px"><tspan x="0" y="0">,</tspan></text>
</g><g clip-path="url(#du)"><text transform="matrix(1,0,0,-1,565.42,442.15)" fill="#000000" font-family="TimesNewRomanPSMT" font-size="11.04px"><tspan x="0 6.1200399" y="0">PA</tspan></text>
</g><g clip-path="url(#dt)"><text transform="matrix(1,0,0,-1,30,429.19)" fill="#000000" font-family="TimesNewRomanPS" font-size="11.04px" font-weight="bold"><tspan x="0 7.9156799 12.21024 16.54896 22.06896 26.97072 29.98464 35.504639 39.214081 44.115841 46.875839 54.692162 59.593922 63.9216 68.823357 74.244003 79.14576 84.069603 90.20784 94.988159" y="0">Associate Researcher</tspan></text>
</g><g clip-path="url(#ds)"><text transform="matrix(1,0,0,-1,472.18,429.19)" fill="#000000" font-family="TimesNewRomanPSMT" font-size="11.04px"><tspan x="0 4.29456 9.8145599 15.33456" y="0">June</tspan></text>
</g><g clip-path="url(#dr)"><text transform="matrix(1,0,0,-1,495.22,429.19)" fill="#000000" font-family="TimesNewRomanPSMT" font-size="11.04px"><tspan x="0 5.1599998 10.32" y="0">201</tspan></text>
</g><g clip-path="url(#dq)"><text transform="matrix(1,0,0,-1,510.7,429.19)" fill="#000000" font-family="TimesNewRomanPSMT" font-size="11.04px"><tspan x="0" y="0">8</tspan></text>
</g><g clip-path="url(#dp)"><text transform="matrix(1,0,0,-1,518.26,429.19)" fill="#000000" font-family="TimesNewRomanPSMT" font-size="11.04px"><tspan x="0" y="0">–</tspan></text>
</g><g clip-path="url(#dn)"><text transform="matrix(1,0,0,-1,526.54,429.19)" fill="#000000" font-family="TimesNewRomanPSMT" font-size="11.04px"><tspan x="0 7.9156799 13.43568 18.955681 24.475679 28.770241" y="0">August</tspan></text>
</g><g clip-path="url(#dm)"><text transform="matrix(1,0,0,-1,560.26,429.19)" fill="#000000" font-family="TimesNewRomanPSMT" font-size="11.04px"><tspan x="0 5.1599998" y="0">20</tspan></text>
</g><g clip-path="url(#dl)"><text transform="matrix(1,0,0,-1,570.58,429.19)" fill="#000000" font-family="TimesNewRomanPSMT" font-size="11.04px"><tspan x="0 5.1599998" y="0">19</tspan></text>
</g><g clip-path="url(#dk)"><text transform="matrix(1,0,0,-1,54,415.63)" fill="#000000" font-family="SymbolMT" font-size="11.04px"><tspan x="0" y="0">•</tspan></text>
</g><g clip-path="url(#dj)"><text transform="matrix(1,0,0,-1,72.024,415.63)" fill="#000000" font-family="TimesNewRomanPSMT" font-size="11.04px"><tspan x="0 6.74544 12.26544 17.78544 22.687201 28.207199 33.108959 38.62896 41.278561 44.391842 49.911839 52.671841 57.474239 61.768799 64.528801 69.463676 72.223679 77.622238 80.735519 86.134079 89.24736 94.767357 98.476799 103.87536 107.4744 116.10768 120.91008 124.02336 127.13664 131.93904 136.2336 138.99361 142.61472 147.51648 151.84416 156.64656 161.54832 165.27985 170.18159 175.60223 180.504 184.23552 186.99551 192.39407 197.29584 200.42017 205.81873 208.93201 214.452 219.972 222.61057 227.51231 231.84 236.0352 241.43376 246.33553 249.45984 254.26224 257.37552 262.27728 265.03729 269.85071 275.37073 278.48401 283.88257 288.78433 294.30432 299.11777 302.23105 305.34433 310.24609 312.90671 321.54001 326.34241 330.05185 335.57184 339.76703 342.52704 350.44272 353.556 356.55887 361.95743 364.71744 367.83072 373.35071 378.25247 381.01248 385.82593 391.34592 396.86591 400.46497 405.36673 409.6944 413.88959 417.00287 422.52289" y="0">Engaged in as a bioinformatics researcher helping associate epigenetic marks with the expression</tspan></text>
</g><g clip-path="url(#di)"><text transform="matrix(1,0,0,-1,72.024,402.43)" fill="#000000" font-family="TimesNewRomanPSMT" font-size="11.04px"><tspan x="0 5.52 9.2294397 11.98944 17.509439 23.02944 28.54944 36.465118 41.985119 44.745121 50.143681 55.045441 60.565441 65.378883 69.673439 72.433441 77.368317 81.563522 85.858078 91.378082 96.20256 99.315842 104.2176 107.23152 112.13328 117.65328 120.31392 128.2296 131.34288 134.45616 139.97617 142.73616 150.65184 153.65472 158.55647 164.07648 168.88992 172.0032 180.52608 185.42784 189.04897 192.75841 197.05296 199.81296" y="0">of known genes associated with Alzheimer’s. </tspan></text>
</g><g clip-path="url(#dg)"><text transform="matrix(1,0,0,-1,30,376.25)" fill="#000000" font-family="TimesNewRomanPS" font-size="11.04px" font-weight="bold"><tspan x="0 7.9156799 15.83136 23.150881 31.784161 39.10368 47.01936 53.1576 55.917599 63.822239 71.737923 76.032478 84.091682 91.411201 99.326881 105.46512 109.75968 117.09024" y="0">RUTGERS UNIVERSITY</tspan></text>
</g><g clip-path="url(#df)"><text transform="matrix(1,0,0,-1,518.14,376.25)" fill="#000000" font-family="TimesNewRomanPSMT" font-size="11.04px"><tspan x="0 7.9156799 11.02896 15.93072 20.148001 24.44256 29.962561 35.482559 39.214081 44.61264 47.372639 50.132641 58.048321" y="0">Glassboro, NJ</tspan></text>
</g><g clip-path="url(#de)"><text transform="matrix(1,0,0,-1,30,363.29)" fill="#000000" font-family="TimesNewRomanPS" font-size="11.04px" font-weight="bold"><tspan x="0 4.29456 10.4328 14.15328 19.05504 23.97888" y="0">Intern</tspan></text>
</g><g clip-path="url(#dd)"><text transform="matrix(1,0,0,-1,474.94,363.29)" fill="#000000" font-family="TimesNewRomanPSMT" font-size="11.04px"><tspan x="0 4.29456 9.8145599 12.83952 18.35952" y="0">July </tspan></text>
</g><g clip-path="url(#dc)"><text transform="matrix(1,0,0,-1,496.06,363.29)" fill="#000000" font-family="TimesNewRomanPSMT" font-size="11.04px"><tspan x="0 5.1599998 10.32" y="0">201</tspan></text>
</g><g clip-path="url(#da)"><text transform="matrix(1,0,0,-1,511.54,363.29)" fill="#000000" font-family="TimesNewRomanPSMT" font-size="11.04px"><tspan x="0" y="0">9</tspan></text>
</g><g clip-path="url(#cz)"><text transform="matrix(1,0,0,-1,519.1,363.29)" fill="#000000" font-family="TimesNewRomanPSMT" font-size="11.04px"><tspan x="0" y="0">–</tspan></text>
</g><g clip-path="url(#cx)"><text transform="matrix(1,0,0,-1,527.38,363.29)" fill="#000000" font-family="TimesNewRomanPSMT" font-size="11.04px"><tspan x="0 7.9156799 13.43568 18.955681 24.475679 28.770241" y="0">August</tspan></text>
</g><g clip-path="url(#cw)"><text transform="matrix(1,0,0,-1,561.1,363.29)" fill="#000000" font-family="TimesNewRomanPSMT" font-size="11.04px"><tspan x="0 5.1599998" y="0">20</tspan></text>
</g><g clip-path="url(#cv)"><text transform="matrix(1,0,0,-1,571.42,363.29)" fill="#000000" font-family="TimesNewRomanPSMT" font-size="11.04px"><tspan x="0 5.1599998" y="0">20</tspan></text>
</g><g clip-path="url(#cu)"><text transform="matrix(1,0,0,-1,54,349.73)" fill="#000000" font-family="SymbolMT" font-size="11.04px"><tspan x="0" y="0">•</tspan></text>
</g><g clip-path="url(#ct)"><text transform="matrix(1,0,0,-1,72.024,349.73)" fill="#000000" font-family="TimesNewRomanPSMT" font-size="11.04px"><tspan x="0 7.1980801 12.59664 17.995199 23.27232 28.670879 33.351841 36.23328 41.035679 46.434238 48.951359 52.428959 57.231361 61.316158 66.118561 70.799522 74.277122 79.079521 84.478081 86.995201 92.393761 97.670883 100.30944 103.19088 108.58944 113.2704 115.90896 119.38656 124.18896 128.86992 133.06512 135.94656 141.22368 144.22656 147.108 149.98944 152.99232 158.26944 160.908 166.18512 169.78416 172.30128 177.69984 181.78464 184.78752 190.06464 195.4632 198.10176 204.58224 208.05984 211.65887 216.936 220.53503 223.1736 230.25024 235.52736 239.00496 242.604 247.28496 251.96593 254.9688 257.85025 263.24881 268.52591 271.16449 275.84543 281.24399 286.52112 291.32352 295.51871 298.03583 303.43439 308.71152 311.22864" y="0">Conducted research on the feasibility of using Error Correcting codes on m</tspan></text>
</g><g clip-path="url(#cs)"><text transform="matrix(1,0,0,-1,391.87,349.73)" fill="#000000" font-family="TimesNewRomanPSMT" font-size="11.04px"><tspan x="0 5.2771201 8.2799997 11.16144 14.04288 18.723841 21.726721 26.407681 30.60288 34.687679 37.326241 41.411041 44.413921 49.69104 55.0896 57.971039 62.773441 65.290558 70.689117 75.370079 79.565277 83.650078 86.531517 91.930077 95.407677 100.80624 106.08336 111.48192" y="0">ulticlass single passthrough</tspan></text>
</g><g clip-path="url(#cq)"><text transform="matrix(1,0,0,-1,72.024,336.53)" fill="#000000" font-family="TimesNewRomanPSMT" font-size="11.04px"><tspan x="0 8.4014397 13.20384 18.006241 23.28336 26.164801 31.56336 36.24432 38.882881 41.76432 46.566719 51.247681 54.725281 60.12384 63.00528 68.403839 73.680962 76.319519 79.200958 84.003357 88.684319 94.082878 99.360001 102.36288 107.64 113.03856 117.71952 121.80432" y="0">machine learning techniques.</tspan></text>
</g><g clip-path="url(#cp)"><text transform="matrix(1,0,0,-1,250.13,323.33)" fill="#000000" font-family="TimesNewRomanPS" font-size="11.04px" font-weight="bold"><tspan x="0 7.31952 12.22128 17.74128 23.87952 28.781281 33.70512 37.99968 44.027519 47.1408 53.279041 55.895519 65.124962 67.884956 75.800636 80.7024 84.323517 87.436798 92.956802 95.959679 99.669121 102.672 107.57376" y="0">Leadership &amp; Activities</tspan></text>
</g><g clip-path="url(#co)"><text transform="matrix(1,0,0,-1,31.8,310.13)" fill="#000000" font-family="TimesNewRomanPS" font-size="11.04px" font-weight="bold"><tspan x="0 8.6332798 17.26656 23.4048 29.98464 34.279202 41.642879 49.54752 56.867039 59.627041 68.260323 75.00576 77.765762 84.941757 93.575043 100.89456 103.65456 111.57024 119.48592" y="0">HOSPITAL OF THE UNI</tspan></text>
</g><g clip-path="url(#cn)"><text transform="matrix(1,0,0,-1,155.66,310.13)" fill="#000000" font-family="TimesNewRomanPS" font-size="11.04px" font-weight="bold"><tspan x="0" y="0">V</tspan></text>
</g><g clip-path="url(#cm)"><text transform="matrix(1,0,0,-1,163.7,310.13)" fill="#000000" font-family="TimesNewRomanPS" font-size="11.04px" font-weight="bold"><tspan x="0 7.31952 15.2352 21.37344 25.667999 32.998562 40.914242 43.552799 52.186081 58.931519 61.691521 68.38176 75.701279 83.616959 91.532639 97.670883 104.96832 112.884 120.91008 128.82576 136.74144 141.036 149.00688" y="0">ERSITY OF PENNSLYVANIA </tspan></text>
</g><g clip-path="url(#cl)"><text transform="matrix(1,0,0,-1,507.94,310.13)" fill="#000000" font-family="TimesNewRomanPSMT" font-size="11.04px"><tspan x="0 5.99472 11.39328 14.27472 17.15616 21.958561 27.23568 31.916639 34.919521 40.318081 45.5952 48.476639" y="0">Philadelphia</tspan></text>
</g><g clip-path="url(#ck)"><text transform="matrix(1,0,0,-1,561.22,310.13)" fill="#000000" font-family="TimesNewRomanPSMT" font-size="11.04px"><tspan x="0" y="0">,</tspan></text>
</g><g clip-path="url(#cj)"><text transform="matrix(1,0,0,-1,566.38,310.13)" fill="#000000" font-family="TimesNewRomanPSMT" font-size="11.04px"><tspan x="0 6.1200399" y="0">PA</tspan></text>
</g><g clip-path="url(#ch)"><text transform="matrix(1,0,0,-1,30,297.17)" fill="#000000" font-family="TimesNewRomanPS" font-size="11.04px" font-weight="bold"><tspan x="0 8.0260801 13.54608 16.54896 22.687201 28.79232 32.501759 37.304161 42.205921 47.129761" y="0">Volunteer </tspan></text>
</g><g clip-path="url(#cg)"><text transform="matrix(1,0,0,-1,459.46,297.17)" fill="#000000" font-family="TimesNewRomanPSMT" font-size="11.04px"><tspan x="0 7.9156799 13.43568 18.955681 24.35424 28.6488" y="0">August</tspan></text>
</g><g clip-path="url(#cf)"><text transform="matrix(1,0,0,-1,494.02,297.17)" fill="#000000" font-family="TimesNewRomanPSMT" font-size="11.04px"><tspan x="0 5.1599998 10.32 15.48" y="0">2017</tspan></text>
</g><g clip-path="url(#ce)"><text transform="matrix(1,0,0,-1,517.06,297.17)" fill="#000000" font-family="TimesNewRomanPSMT" font-size="11.04px"><tspan x="0" y="0">–</tspan></text>
</g><g clip-path="url(#cc)"><text transform="matrix(1,0,0,-1,525.34,297.17)" fill="#000000" font-family="TimesNewRomanPSMT" font-size="11.04px"><tspan x="0 7.9156799 13.43568 18.955681 24.475679 28.770241" y="0">August</tspan></text>
</g><g clip-path="url(#cb)"><text transform="matrix(1,0,0,-1,559.06,297.17)" fill="#000000" font-family="TimesNewRomanPSMT" font-size="11.04px"><tspan x="0 5.1599998 10.32 15.48" y="0">2019</tspan></text>
</g><g clip-path="url(#ca)"><text transform="matrix(1,0,0,-1,54,283.61)" fill="#000000" font-family="SymbolMT" font-size="11.04px"><tspan x="0" y="0">•</tspan></text>
</g><g clip-path="url(#bz)"><text transform="matrix(1,0,0,-1,72.024,283.61)" fill="#000000" font-family="TimesNewRomanPSMT" font-size="11.04px"><tspan x="0 6.1382399 11.04 14.74944 20.26944 25.1712 30.591841 33.351841 38.253601 42.58128 45.219841 50.121601 52.881599 58.4016 63.9216 66.935516 72.455521 77.975517 80.978401 85.880157 90.804001 94.403038 97.16304 102.0648 105.18912 107.82768 110.94096 116.46096 121.26336 124.02336 131.93904 137.45905 141.7536 147.27361 150.29855 153.41183 158.3136 161.32751 164.08752 169.60751 173.31696 175.95552 179.0688 184.58881 189.49055 192.25056 200.22144 205.58688 208.70016 214.22015 219.02255 222.73199 226.9272 230.04048 233.15376 238.67377 241.31232 246.83232 250.54176 253.30176 259.44 264.34177 269.86176 275.26031 279.55487 285.07489 288.09985 293.61984 298.52161 303.94223 307.05551 311.95728 314.71729 319.53073 324.4325 329.35632 334.75488 343.38815 348.90817 351.91104 356.81281 359.82672 362.82959 368.34961 373.8696 376.62961 382.1496 387.66959 392.47198 396.18143 398.94144 404.46143" y="0">Served as a volunteer at the Hospital of the University of Pennsylvania accumulating over 16</tspan></text>
</g><g clip-path="url(#by)"><text transform="matrix(1,0,0,-1,482.26,283.61)" fill="#000000" font-family="TimesNewRomanPSMT" font-size="11.04px"><tspan x="0 5.52 8.2799997 13.8 19.198561 24.718559 28.427999 32.623199" y="0">0 hours </tspan></text>
</g><g clip-path="url(#bx)"><text transform="matrix(1,0,0,-1,72.024,270.41)" fill="#000000" font-family="TimesNewRomanPSMT" font-size="11.04px"><tspan x="0 5.52 11.04 15.94176 19.673281 22.31184 25.425119 30.94512 35.846882 38.507519 47.1408 52.53936 55.652641 58.655521 61.768799 67.288803 70.291679 75.193443 77.953438 82.28112 87.67968 96.20256 104.83584 109.7376 113.35872 117.65328" y="0">over the multiple summers.</tspan></text>
</g><g clip-path="url(#bv)"><text transform="matrix(1,0,0,-1,30.48,243.77)" fill="#000000" font-family="TimesNewRomanPS" font-size="11.04px" font-weight="bold"><tspan x="0" y="0">H</tspan></text>
</g><g clip-path="url(#bu)"><text transform="matrix(1,0,0,-1,39.12,243.77)" fill="#000000" font-family="TimesNewRomanPS" font-size="11.04px" font-weight="bold"><tspan x="0 7.9156799 15.83136 23.74704 28.041599 36.012482 38.77248 46.66608 55.299358 59.593922 67.564796 74.862244 81.000481 88.29792 91.057922 97.196159 105.1008 113.62368 122.25696 130.89024 138.20976" y="0">UAXIA CHINESE SCHOOL </tspan></text>
</g><g clip-path="url(#bt)"><text transform="matrix(1,0,0,-1,515.5,243.77)" fill="#000000" font-family="TimesNewRomanPSMT" font-size="11.04px"><tspan x="0 7.1980801 12.59664 17.277599 20.755199 24.35424 29.7528 32.391361 40.075199 42.956638 45.838081 48.840961" y="0">Cherry Hill,</tspan></text>
</g><g clip-path="url(#bs)"><text transform="matrix(1,0,0,-1,569.5,243.77)" fill="#000000" font-family="TimesNewRomanPSMT" font-size="11.04px"><tspan x="0 7.91998" y="0">NJ</tspan></text>
</g><g clip-path="url(#br)"><text transform="matrix(1,0,0,-1,30,230.81)" fill="#000000" font-family="TimesNewRomanPS" font-size="11.04px" font-weight="bold"><tspan x="0 7.31952 12.22128 17.74128 22.665119 28.80336 33.70512 38.60688" y="0">Teacher </tspan></text>
</g><g clip-path="url(#bq)"><text transform="matrix(1,0,0,-1,445.27,230.81)" fill="#000000" font-family="TimesNewRomanPSMT" font-size="11.04px"><tspan x="0 6.1382399 11.04 16.43856 19.55184 24.35424 32.987518 38.507519 43.309921 47.01936" y="0">September </tspan></text>
</g><g clip-path="url(#bp)"><text transform="matrix(1,0,0,-1,495.1,230.81)" fill="#000000" font-family="TimesNewRomanPSMT" font-size="11.04px"><tspan x="0 5.1599998 10.32 15.48 20.639999" y="0">2018 </tspan></text>
</g><g clip-path="url(#bo)"><text transform="matrix(1,0,0,-1,518.14,230.81)" fill="#000000" font-family="TimesNewRomanPSMT" font-size="11.04px"><tspan x="0" y="0">–</tspan></text>
</g><g clip-path="url(#bn)"><text transform="matrix(1,0,0,-1,526.42,230.81)" fill="#000000" font-family="TimesNewRomanPSMT" font-size="11.04px"><tspan x="0 7.9156799 13.43568 18.955681 24.475679 28.770241" y="0">August</tspan></text>
</g><g clip-path="url(#bm)"><text transform="matrix(1,0,0,-1,560.14,230.81)" fill="#000000" font-family="TimesNewRomanPSMT" font-size="11.04px"><tspan x="0 5.1599998 10.32 15.48" y="0">2020</tspan></text>
</g><g clip-path="url(#bl)"><text transform="matrix(1,0,0,-1,54,217.13)" fill="#000000" font-family="SymbolMT" font-size="11.04px"><tspan x="0" y="0">•</tspan></text>
</g><g clip-path="url(#bk)"><text transform="matrix(1,0,0,-1,72.024,217.13)" fill="#000000" font-family="TimesNewRomanPSMT" font-size="11.04px"><tspan x="0 10.42176 15.94176 19.673281 25.07184 29.9736 35.493599 38.253601 43.177441 47.372639 50.132641 55.034401 57.794399 62.718239 68.116798 76.750076 82.148643 87.0504 90.064323 93.177597 96.180481 99.293762 104.81376 110.33376 112.97232 121.4952 126.39696 129.52129 135.04128 137.67984 140.79312 145.69489 150.50832 155.41008 160.93008 165.85393 169.45296 172.21297 180.12865 185.64864 189.35808 194.75664 197.86992 203.38992 208.90993 211.66992 219.5856 222.58849 225.70177 231.22176 233.86032 238.76208 244.18272 247.29601 250.40929 255.80785 259.51727 264.41904 269.93903 272.59967 275.71295 281.23297 283.99295 289.39151 293.10095 298.00272 303.52271 308.33615 312.63071 315.39072 320.91071 323.67072 326.43073" y="0">Worked as a competition math teacher working with children in grades 3, 4</tspan></text>
</g><g clip-path="url(#bj)"><text transform="matrix(1,0,0,-1,404.23,217.13)" fill="#000000" font-family="TimesNewRomanPSMT" font-size="11.04px"><tspan x="0" y="0">,</tspan></text>
</g><g clip-path="url(#bi)"><text transform="matrix(1,0,0,-1,409.63,217.13)" fill="#000000" font-family="TimesNewRomanPSMT" font-size="11.04px"><tspan x="0 4.9017601 10.42176 15.94176 18.701759 24.22176 26.882401 29.52096 36.840481 42.360481 47.880482 50.993759 54.10704 59.5056 65.025597 69.927361 75.447357 78.207359 86.178238 89.148003 92.261276 97.781281 100.41984 103.53312 109.05312 113.95488" y="0">and 5. Continued with the </tspan></text>
</g><g clip-path="url(#bf)"><text transform="matrix(1,0,0,-1,72.024,204.02)" fill="#000000" font-family="TimesNewRomanPSMT" font-size="11.04px"><tspan x="0 4.29456 9.2294397 17.752319 22.654079 25.41408 30.337919 35.736481 38.849758 41.963039 47.361599 51.071041 55.972801 61.492802 64.153442 69.673439 75.193443 79.995842 83.705276 86.465279 91.985283 94.745277 100.26528 105.06768 109.96944 113.70096" y="0">same children over 2 years</tspan></text>
</g><g clip-path="url(#be)"><text transform="matrix(1,0,0,-1,189.98,204.02)" fill="#000000" font-family="TimesNewRomanPSMT" font-size="11.04px"><tspan x="0" y="0">.</tspan></text>
</g><g clip-path="url(#bd)"><text transform="matrix(1,0,0,-1,30.84,177.26)" fill="#000000" font-family="TimesNewRomanPS" font-size="11.04px" font-weight="bold"><tspan x="0 8.6332798 16.54896 24.46464 32.380322 41.013599 48.929279 55.674721 59.96928 67.288803 74.608322 82.524002 85.283997 95.705757 103.06944 113.35872 121.8816 129.79729 134.09184 142.06271 149.36015 152.12016 160.75343 164.94864 173.58192 182.21519 184.9752 191.11343 198.89664 207.41953 216.0528 224.68608 232.0056" y="0">HADDONFIELD MEMORIAL HIGH SCHOOL </tspan></text>
</g><g clip-path="url(#bc)"><text transform="matrix(1,0,0,-1,510.46,177.26)" fill="#000000" font-family="TimesNewRomanPSMT" font-size="11.04px"><tspan x="0 7.8052802 12.60768 18.006241 23.28336 28.681919 33.959042 37.436642 40.439522 45.12048 48.001919 53.400478" y="0">Haddonfield,</tspan></text>
</g><g clip-path="url(#bb)"><text transform="matrix(1,0,0,-1,569.02,177.26)" fill="#000000" font-family="TimesNewRomanPSMT" font-size="11.04px"><tspan x="0 7.91998" y="0">NJ</tspan></text>
</g><g clip-path="url(#ba)"><text transform="matrix(1,0,0,-1,30,164.3)" fill="#000000" font-family="TimesNewRomanPS" font-size="11.04px" font-weight="bold"><tspan x="0 6.74544 11.6472 16.54896 20.865601 23.97888 29.9736 34.875359 41.013599 44.723042" y="0">President </tspan></text>
</g><g clip-path="url(#az)"><text transform="matrix(1,0,0,-1,445.87,164.3)" fill="#000000" font-family="TimesNewRomanPSMT" font-size="11.04px"><tspan x="0 6.1382399 11.04 16.43856 19.55184 24.35424 32.987518 38.507519 43.309921 47.01936" y="0">September </tspan></text>
</g><g clip-path="url(#ay)"><text transform="matrix(1,0,0,-1,495.7,164.3)" fill="#000000" font-family="TimesNewRomanPSMT" font-size="11.04px"><tspan x="0 5.1599998 10.32 15.48 20.639999" y="0">2016 </tspan></text>
</g><g clip-path="url(#ax)"><text transform="matrix(1,0,0,-1,518.74,164.3)" fill="#000000" font-family="TimesNewRomanPSMT" font-size="11.04px"><tspan x="0" y="0">–</tspan></text>
</g><g clip-path="url(#av)"><text transform="matrix(1,0,0,-1,527.02,164.3)" fill="#000000" font-family="TimesNewRomanPSMT" font-size="11.04px"><tspan x="0 7.9156799 13.43568 18.955681 24.475679 28.770241" y="0">August</tspan></text>
</g><g clip-path="url(#au)"><text transform="matrix(1,0,0,-1,560.74,164.3)" fill="#000000" font-family="TimesNewRomanPSMT" font-size="11.04px"><tspan x="0 5.1599998 10.32 15.48" y="0">2020</tspan></text>
</g><g clip-path="url(#at)"><text transform="matrix(1,0,0,-1,54,150.74)" fill="#000000" font-family="SymbolMT" font-size="11.04px"><tspan x="0" y="0">•</tspan></text>
</g><g clip-path="url(#as)"><text transform="matrix(1,0,0,-1,72.024,150.74)" fill="#000000" font-family="TimesNewRomanPSMT" font-size="11.04px"><tspan x="0 6.1382399 11.04 14.74944 20.26944 25.1712 30.591841 33.351841 38.253601 42.58128 45.219841 48.333118 53.853119 58.754879 61.514881 66.935516 70.644958 75.447357 79.74192 82.877281 88.275841 93.177597 98.697601 101.82192 104.46048 109.98048 113.68992 116.32848 119.33136 124.85136 129.75311 132.51312 137.43697 142.95695 148.35551 151.4688 156.9888 162.5088 165.2688 170.0712 173.18448 178.70448 184.22449 186.86304 190.57248 196.09248 199.69151 202.45152 207.97153 210.73152 216.25153 221.05392 225.95567 229.68719 233.98177" y="0">Served as the president of the coding club for 4 years.</tspan></text>
</g><g clip-path="url(#ar)"><text transform="matrix(1,0,0,-1,265.37,125.18)" fill="#000000" font-family="TimesNewRomanPS" font-size="11.04px" font-weight="bold"><tspan x="0 6.1382399 12.24336 15.35664 18.35952 21.472799 25.767361 28.427999 37.65744 40.417439 44.712002 50.739841 54.44928 59.35104 64.274879 69.077278 73.371841 76.992958" y="0">Skills &amp; Interests</tspan></text>
</g><g clip-path="url(#aq)"><text transform="matrix(1,0,0,-1,30,99.864)" fill="#000000" font-family="TimesNewRomanPS" font-size="11.04px" font-weight="bold"><tspan x="0 7.31952 12.22128 17.145121 23.28336 29.388479 32.501759 37.304161 42.824162 45.827042" y="0">Technical:</tspan></text>
</g><g clip-path="url(#ap)"><text transform="matrix(1,0,0,-1,82.344,99.864)" fill="#000000" font-family="TimesNewRomanPSMT" font-size="11.04px"><tspan x="0 6.1382399 11.65824 14.72736 20.15904 25.679041 31.199039 33.959042 36.71904 44.038559 48.940319 53.753761 58.655521 61.779839 64.539841 67.178398 73.923843 79.44384 84.963837 88.64016 93.564003 97.759201 102.05376 104.81376 107.57376 115.54464 122.23488 132.04944 138.79488 141.55489 144.31488 151.6344 157.77264 163.87776 166.63776 169.39777 177.31345 184.63297 189.43536 198.06863 201.18192 203.94193 206.70192 213.89999 220.12656 226.35312" y="0">Python, React, Express, HTML, CSS, OCaml, C++ </tspan></text>
</g><g clip-path="url(#ao)"><text transform="matrix(1,0,0,-1,30,73.464)" fill="#000000" font-family="TimesNewRomanPS" font-size="11.04px" font-weight="bold"><tspan x="0 7.31952 12.83952 18.97776 24.497761 30.60288 36.122879 41.642879 46.54464 50.761921 54.471359" y="0">Languages: </tspan></text>
</g><g clip-path="url(#an)"><text transform="matrix(1,0,0,-1,87.264,73.464)" fill="#000000" font-family="TimesNewRomanPSMT" font-size="11.04px"><tspan x="0 6.1382399 9.2073603 14.63904 19.5408 25.060801 28.07472 30.834721 38.15424 43.67424 46.787521 52.186081 57.087841 61.305119 66.206879 68.966881 72.698402 78.836639 84.356644 89.136963 94.038719 99.558723 102.57264 108.09264 113.61264 116.37264 121.2744 126.7944 132.31441 135.0744 141.68736 144.80064 148.99583 152.10912 157.01088 162.43152 165.5448 171.0648 176.46336" y="0">Fluent Chinese (Speaking and Listening)</tspan></text>
</g><g clip-path="url(#al)"><text transform="matrix(1,0,0,-1,30,47.064)" fill="#000000" font-family="TimesNewRomanPS" font-size="11.04px" font-weight="bold"><tspan x="0 4.29456 10.4328 14.15328 19.05504 23.868481 28.770241 32.987518 36.69696 40.99152" y="0">Interests:</tspan></text>
</g><g clip-path="url(#ak)"><text transform="matrix(1,0,0,-1,77.544,47.064)" fill="#000000" font-family="TimesNewRomanPSMT" font-size="11.04px"><tspan x="0 7.31952 12.71808 21.35136 26.74992 29.863199 32.866081 37.767841 41.499359 45.694561 48.454559" y="0">Compilers, </tspan></text>
</g><g clip-path="url(#aj)"><text transform="matrix(1,0,0,-1,128.78,47.064)" fill="#000000" font-family="TimesNewRomanPSMT" font-size="11.04px"><tspan x="0 7.31952 12.83952 17.74128 23.161921 25.921921 33.24144 36.354721 39.357601 47.990879 53.51088 56.51376 62.03376 67.553757 70.313759 73.073761 80.39328 85.913277 90.715683 95.010239" y="0">Rock Climbing, Chess</tspan></text>
</g><path d="m36.5 721.5h540" fill="none" stroke="#000" stroke-linejoin="round" stroke-miterlimit="10"/></g></svg>
